<svg width="18" height="20" viewBox="0 0 18 20" fill="none" xmlns="http://www.w3.org/2000/svg">
<path d="M17.9992 7.46114C17.9992 6.32124 17.6332 5.25043 16.9345 4.31779C17.2007 3.41969 17.2672 2.27979 17.2007 0.967185C17.1674 0.414508 16.7349 0 16.2025 0C15.9031 0 13.3744 0.0345423 11.9105 1.38169C10.6461 1.1399 9.31526 1.1399 8.01766 1.38169C6.58698 0.0345423 4.05833 0 3.72561 0C3.19326 0 2.76073 0.414508 2.72746 0.967185C2.62764 2.27979 2.72746 3.41969 2.99363 4.31779C2.29492 5.28497 1.92894 6.35579 1.92894 7.46114C1.92894 9.8791 3.72561 12.0553 6.45389 13.0915C6.35407 13.2988 6.28753 13.5406 6.22099 13.7824C3.32635 13.4715 1.96221 10.7427 1.89566 10.639C1.66276 10.1209 1.06387 9.91364 0.564795 10.19C0.0657196 10.4318 -0.133911 11.0535 0.132263 11.5717C0.198806 11.7444 2.02875 15.4404 6.05463 15.8549V18.9637C6.05463 19.5509 6.48716 20 7.05278 20H12.8753C13.441 20 13.8735 19.5509 13.8735 18.9637V14.8532C13.8735 14.2314 13.7404 13.6442 13.5075 13.1261C16.2025 12.0553 17.9992 9.91364 17.9992 7.46114Z" fill="white"/>
</svg>
