<svg width="24" height="24" viewBox="0 0 24 24" fill="none" xmlns="http://www.w3.org/2000/svg">
<g clip-path="url(#clip0_34_2252)">
<g clip-path="url(#clip1_34_2252)">
<path d="M20.9994 9.46114C20.9994 8.32124 20.6334 7.25043 19.9347 6.31779C20.2008 5.41969 20.2674 4.27979 20.2008 2.96718C20.1676 2.41451 19.735 2 19.2027 2C18.9032 2 16.3746 2.03454 14.9106 3.38169C13.6463 3.1399 12.3154 3.1399 11.0178 3.38169C9.58716 2.03454 7.05851 2 6.72579 2C6.19344 2 5.76091 2.41451 5.72764 2.96718C5.62783 4.27979 5.72764 5.41969 5.99381 6.31779C5.29511 7.28497 4.92912 8.35579 4.92912 9.46114C4.92912 11.8791 6.72579 14.0553 9.45407 15.0915C9.35426 15.2988 9.28771 15.5406 9.22117 15.7824C6.32653 15.4715 4.96239 12.7427 4.89585 12.639C4.66295 12.1209 4.06405 11.9136 3.56498 12.19C3.0659 12.4318 2.86627 13.0535 3.13245 13.5717C3.19899 13.7444 5.02893 17.4404 9.05481 17.8549V20.9637C9.05481 21.5509 9.48735 22 10.053 22H15.8755C16.4411 22 16.8737 21.5509 16.8737 20.9637V16.8532C16.8737 16.2314 16.7406 15.6442 16.5077 15.1261C19.2027 14.0553 20.9994 11.9136 20.9994 9.46114Z" fill="#505F79"/>
</g>
</g>
<defs>
<clipPath id="clip0_34_2252">
<rect width="18" height="20" fill="white" transform="translate(3 2)"/>
</clipPath>
<clipPath id="clip1_34_2252">
<rect width="18" height="20" fill="white" transform="translate(3 2)"/>
</clipPath>
</defs>
</svg>
