<svg width="327" height="144" viewBox="0 0 327 144" fill="none" xmlns="http://www.w3.org/2000/svg">
<g filter="url(#filter0_d_48_1462)">
<circle cx="164" cy="64" r="40" fill="white"/>
</g>
<path d="M156 68.7999C156 69.1999 156.2 69.5999 156.6 69.7999L161.6 72.7999C162.2 73.1999 162.8 72.7999 162.8 72.1999V66.5999C162.8 66.3999 162.6 65.9999 162.4 65.9999L157.2 62.5999C156.8 62.3999 156 62.7999 156 63.3999V68.7999Z" fill="#091E42"/>
<path d="M163.6 66.3997V71.9997C163.6 72.5997 164.2 72.9997 164.8 72.5997L169.8 69.5997C170.2 69.3997 170.4 68.9997 170.4 68.5997V63.3997C170.4 62.7997 169.8 62.3997 169.2 62.7997L164 65.5997C163.8 65.7997 163.6 65.9997 163.6 66.3997Z" fill="#091E42"/>
<path d="M169.2 61.7998L163.6 64.9998C163.4 65.1998 163 65.1998 162.8 64.9998L157.2 61.7998C156.6 61.3998 156.6 60.7998 157.2 60.3998L162.8 57.1998C163 56.9998 163.4 56.9998 163.6 57.1998L169.2 60.3998C169.8 60.5998 169.8 61.3998 169.2 61.7998Z" fill="#36B37E"/>
<path d="M144 80.0001C144 80.4001 144.2 80.8001 144.6 81.0001L149.6 84.0001C150.2 84.4001 150.8 84.0001 150.8 83.4001V77.8001C150.8 77.6001 150.6 77.2001 150.4 77.2001L145.2 74.2001C144.6 73.8001 144 74.2001 144 74.8001V80.0001V80.0001Z" fill="#091E42"/>
<path d="M151.6 77.4003V83.0003C151.6 83.6003 152.2 84.0003 152.8 83.6003L157.8 80.6003C158.2 80.4003 158.4 80.0003 158.4 79.6003V74.0003C158.4 73.4003 157.8 73.0003 157.2 73.4003L152 76.8003C151.8 77.0003 151.6 77.2003 151.6 77.4003Z" fill="#091E42"/>
<path d="M157.2 72.7998L151.6 75.9998C151.4 76.1998 151 76.1998 150.8 75.9998L145.2 72.7998C144.6 72.3998 144.6 71.7998 145.2 71.3998L150.8 68.1998C151 67.9998 151.4 67.9998 151.6 68.1998L157.2 71.3998C157.6 71.7998 157.6 72.5998 157.2 72.7998Z" fill="#36B37E"/>
<path d="M168.2 80.0001C168.2 80.4001 168.4 80.8001 168.8 81.0001L173.8 84.0001C174.4 84.4001 175 84.0001 175 83.4001V77.8001C175 77.6001 174.8 77.2001 174.6 77.2001L169.4 74.2001C168.8 73.8001 168.2 74.2001 168.2 74.8001V80.0001V80.0001Z" fill="#091E42"/>
<path d="M175.6 77.4003V83.0003C175.6 83.6003 176.2 84.0003 176.8 83.6003L181.8 80.6003C182.2 80.4003 182.4 80.0003 182.4 79.6003V74.0003C182.4 73.4003 181.8 73.0003 181.2 73.4003L176 76.8003C175.8 77.0003 175.6 77.2003 175.6 77.4003Z" fill="#091E42"/>
<path d="M181.2 72.7998L175.6 75.9998C175.4 76.1998 175 76.1998 174.8 75.9998L169.2 72.7998C168.6 72.3998 168.6 71.7998 169.2 71.3998L174.8 68.1998C175 67.9998 175.4 67.9998 175.6 68.1998L181.2 71.3998C181.8 71.7998 181.8 72.5998 181.2 72.7998Z" fill="#36B37E"/>
<path d="M144 57.8005C144 58.2005 144.2 58.6005 144.6 58.8005L149.6 61.8005C150 62.0005 150.8 61.6005 150.8 61.0005V55.2005C150.8 55.0005 150.6 54.6005 150.4 54.6005L145.2 51.6005C144.6 51.4005 144 51.6005 144 52.4005V57.8005Z" fill="#091E42"/>
<path d="M151.6 55.1997V60.7997C151.6 61.3997 152.2 61.7997 152.8 61.3997L157.8 58.3997C158.2 58.1997 158.4 57.7997 158.4 57.3997V52.3997C158.4 51.7997 157.8 51.3997 157.2 51.7997L152 54.5997C151.8 54.7997 151.6 54.9997 151.6 55.1997Z" fill="#091E42"/>
<path d="M157.2 50.6L151.6 53.8C151.4 54 151 54 150.8 53.8L145.2 50.6C144.6 50.2 144.6 49.6 145.2 49.2L150.8 46C151 46 151.4 46 151.6 46.2L157.2 49.4C157.6 49.6 157.6 50.4 157.2 50.6Z" fill="#36B37E"/>
<path d="M168.2 57.8005C168.2 58.2005 168.4 58.6005 168.8 58.8005L173.8 61.8005C174.4 62.2005 175 61.8005 175 61.2005V55.2005C175 55.0005 174.8 54.6005 174.6 54.6005L169.4 51.6005C168.8 51.2005 168.2 51.6005 168.2 52.2005V57.8005V57.8005Z" fill="#091E42"/>
<path d="M175.6 55.1997V60.7997C175.6 61.3997 176.2 61.7997 176.8 61.3997L181.8 58.3997C182.2 58.1997 182.4 57.7997 182.4 57.3997V52.3997C182.4 51.7997 181.8 51.3997 181.2 51.7997L176 54.5997C175.8 54.7997 175.6 54.9997 175.6 55.1997Z" fill="#091E42"/>
<path d="M181.2 50.5998L175.6 53.9998C175.4 53.9998 175.2 53.9998 174.8 53.9998L169.2 50.7998C168.6 50.3998 168.6 49.7998 169.2 49.3998L174.8 46.1998C175 45.9998 175.4 45.9998 175.6 46.1998L181.2 49.3998C181.8 49.5998 181.8 50.3998 181.2 50.5998Z" fill="#36B37E"/>
<defs>
<filter id="filter0_d_48_1462" x="100" y="16" width="128" height="128" filterUnits="userSpaceOnUse" color-interpolation-filters="sRGB">
<feFlood flood-opacity="0" result="BackgroundImageFix"/>
<feColorMatrix in="SourceAlpha" type="matrix" values="0 0 0 0 0 0 0 0 0 0 0 0 0 0 0 0 0 0 127 0" result="hardAlpha"/>
<feOffset dy="16"/>
<feGaussianBlur stdDeviation="12"/>
<feColorMatrix type="matrix" values="0 0 0 0 0.145573 0 0 0 0 0.185183 0 0 0 0 0.5375 0 0 0 0.08 0"/>
<feBlend mode="normal" in2="BackgroundImageFix" result="effect1_dropShadow_48_1462"/>
<feBlend mode="normal" in="SourceGraphic" in2="effect1_dropShadow_48_1462" result="shape"/>
</filter>
</defs>
</svg>
