<svg width="24" height="24" viewBox="0 0 24 24" fill="none" xmlns="http://www.w3.org/2000/svg">
<g clip-path="url(#clip0_34_2258)">
<path d="M15.6444 5.03418C12.1556 5.03418 9.28857 7.86177 9.28857 11.379V21.31C9.28857 21.6894 9.59946 21.9997 9.97942 21.9997H13.5718C13.9518 21.9997 14.2627 21.6894 14.2627 21.31V11.6549C14.2627 10.8962 14.8844 10.2756 15.6444 10.2756C16.4043 10.2756 17.0261 10.8962 17.0261 11.6549V21.31C17.0261 21.6894 17.3369 21.9997 17.7169 21.9997H21.3093C21.6893 21.9997 22.0001 21.6894 22.0001 21.31V11.379C22.0001 7.89625 19.1677 5.03418 15.6444 5.03418Z" fill="#505F79"/>
<path d="M6.28325 8.27637H2.69085C2.31088 8.27637 2 8.58671 2 8.96602V21.3108C2 21.6902 2.31088 22.0005 2.69085 22.0005H6.28325C6.66321 22.0005 6.97409 21.6902 6.97409 21.3108V8.96602C6.97409 8.58671 6.66321 8.27637 6.28325 8.27637Z" fill="#505F79"/>
<path d="M4.48705 2C3.10535 2 2 3.10345 2 4.48276C2 5.86207 3.10535 6.96552 4.48705 6.96552C5.86874 6.96552 6.97409 5.86207 6.97409 4.48276C6.97409 3.10345 5.86874 2 4.48705 2Z" fill="#505F79"/>
</g>
<defs>
<clipPath id="clip0_34_2258">
<rect width="20" height="20" fill="white" transform="translate(2 2)"/>
</clipPath>
</defs>
</svg>
