<svg width="24" height="24" viewBox="0 0 24 24" fill="none" xmlns="http://www.w3.org/2000/svg">
<g clip-path="url(#clip0_34_2268)">
<path d="M11.4643 22C16.1609 22 19.0834 18.5392 19.0834 14.0742C19.0834 12.3908 18.8093 10.8708 16.8984 10.4142C17.3634 9.14083 18.7051 5.4575 18.7051 4.2775C18.7051 3.23833 18.0801 2.3675 16.9659 2.3675C15.1901 2.3675 13.5984 7.51167 13.1001 8.73833C12.7143 7.625 10.9076 2 9.31509 2C8.07759 2 7.49675 2.89417 7.49675 4.01917C7.49675 5.39833 8.85759 8.9725 9.35092 10.3475C9.10092 10.2575 8.83009 10.1792 8.55425 10.1792C7.62259 10.1792 6.63175 11.3158 6.63175 12.2342C6.63175 12.5817 6.82675 13.07 6.95009 13.3942C5.48175 13.785 4.91675 14.7458 4.91675 16.195C4.91259 19.015 7.63592 22 11.4643 22V22ZM15.4893 6.21917C15.6493 5.73833 16.3293 3.7075 16.9659 3.7075C17.3084 3.7075 17.4001 4.055 17.4001 4.3325C17.4001 5.07833 15.8643 9.2 15.5251 10.1133L14.1718 9.87917L15.4893 6.21917ZM8.74675 3.8875V3.88667C8.74675 3.42167 9.32425 2.10167 10.5893 5.72667L11.9668 9.645C11.3459 9.59417 10.8643 9.5275 10.5584 9.7C10.1243 8.575 8.74675 5.02417 8.74675 3.8875V3.8875ZM8.65509 11.5308L8.65592 11.5317C9.82175 11.5317 11.3268 15.2267 11.3268 15.7267C11.3268 15.9258 11.1318 16.1717 10.9051 16.1717C10.0726 16.1717 7.84342 13.1675 7.84342 12.355C7.84675 12.0542 8.34842 11.5308 8.65509 11.5308V11.5308ZM7.31509 14.5892C7.76842 14.5892 9.47592 16.945 9.47592 17.445C9.47592 17.6367 9.16925 17.7692 9.01092 17.7692C8.37009 17.7692 8.11925 17.1633 6.97759 15.7617C5.79509 16.9217 7.79342 19.1558 9.29842 19.1558C10.3368 19.1558 11.0134 18.2108 10.8109 17.515C10.9584 17.515 11.1409 17.5267 11.2768 17.4917C11.3209 18.55 11.6393 19.8117 12.9368 19.9017C12.9368 19.8667 13.0168 19.6242 13.0168 19.6125C13.0168 18.9325 12.5951 18.3392 12.5951 17.6475C12.5951 16.5417 13.4584 15.4717 14.3343 14.8467C14.6526 14.6125 15.0393 14.4675 15.4126 14.335C15.7993 14.1908 16.2093 14.0225 16.5026 13.7333C16.4584 13.2958 16.2759 12.9092 15.8301 12.9092C14.7276 12.9092 11.0301 13.0658 11.0301 11.3583C11.0301 11.0967 11.0343 10.8467 11.7234 10.8467C13.0093 10.8467 16.2734 11.1592 17.2284 11.9833C17.9484 12.6125 18.1959 16.405 15.9943 18.8075L15.9918 18.8083C14.8334 20.0583 13.3526 20.7067 11.6251 20.7067C9.26092 20.7067 7.39342 19.4333 6.49425 17.2575C5.81342 15.5625 6.64592 14.5892 7.31509 14.5892V14.5892ZM12.0659 13.8858C12.4534 14.0075 12.8509 14.0433 13.2493 14.1208C12.9543 14.3317 12.6926 14.59 12.4409 14.8667C12.3293 14.535 12.1934 14.2108 12.0659 13.8858Z" fill="#505F79"/>
</g>
<defs>
<clipPath id="clip0_34_2268">
<rect width="20" height="20" fill="white" transform="translate(2 2)"/>
</clipPath>
</defs>
</svg>
