<svg width="327" height="144" viewBox="0 0 327 144" fill="none" xmlns="http://www.w3.org/2000/svg">
<g filter="url(#filter0_d_48_1417)">
<circle cx="164" cy="64" r="40" fill="white"/>
</g>
<g clip-path="url(#clip0_48_1417)">
<path d="M176.271 62.8957H185.704C185.852 62.8957 185.999 62.7486 185.999 62.6014C185.336 52.7419 178.187 44.5747 168.753 42.5145C168.532 42.4409 168.311 42.7352 168.532 42.9559C172.954 47.8857 175.755 54.9492 176.049 62.675C175.976 62.8221 176.123 62.8957 176.271 62.8957Z" fill="#091E42"/>
<path d="M164.184 42C164.11 42 164.037 42 163.963 42C163.889 42 163.816 42 163.742 42C158.067 46.3411 154.529 54.0669 154.161 62.602C154.161 62.7492 154.308 62.8963 154.455 62.8963H173.471C173.618 62.8963 173.765 62.7492 173.765 62.602C173.471 54.0669 169.859 46.3411 164.184 42Z" fill="#36B37E"/>
<path d="M154.455 65.1035C154.308 65.1035 154.161 65.2507 154.161 65.3978C154.529 74.0065 158.067 81.6587 163.742 85.9998C163.816 85.9998 163.889 85.9998 163.963 85.9998C164.037 85.9998 164.11 85.9998 164.184 85.9998C169.859 81.6587 173.397 73.9329 173.765 65.3978C173.765 65.2507 173.618 65.1035 173.471 65.1035H154.455Z" fill="#091E42"/>
<path d="M175.976 65.3243C175.681 73.05 172.954 80.1136 168.532 85.0433C168.384 85.2641 168.532 85.5584 168.753 85.4848C178.187 83.4246 185.41 75.2574 185.999 65.3978C185.999 65.2507 185.852 65.1035 185.704 65.1035H176.271C176.123 65.1035 175.976 65.2507 175.976 65.3243Z" fill="#36B37E"/>
<path d="M151.728 65.1035H142.294C142.147 65.1035 142 65.2507 142 65.3978C142.589 75.2574 149.812 83.4246 159.246 85.4848C159.467 85.5584 159.688 85.2641 159.467 85.0433C154.971 80.1136 152.244 73.05 151.949 65.3243C152.023 65.2507 151.876 65.1035 151.728 65.1035Z" fill="#36B37E"/>
<path d="M152.023 62.675C152.318 54.9492 155.045 47.8857 159.467 42.9559C159.614 42.7352 159.467 42.4409 159.246 42.5145C149.812 44.5747 142.589 52.7419 142 62.6014C142 62.7486 142.147 62.8957 142.294 62.8957H151.728C151.876 62.8957 152.023 62.8221 152.023 62.675Z" fill="#091E42"/>
</g>
<defs>
<filter id="filter0_d_48_1417" x="100" y="16" width="128" height="128" filterUnits="userSpaceOnUse" color-interpolation-filters="sRGB">
<feFlood flood-opacity="0" result="BackgroundImageFix"/>
<feColorMatrix in="SourceAlpha" type="matrix" values="0 0 0 0 0 0 0 0 0 0 0 0 0 0 0 0 0 0 127 0" result="hardAlpha"/>
<feOffset dy="16"/>
<feGaussianBlur stdDeviation="12"/>
<feColorMatrix type="matrix" values="0 0 0 0 0.145573 0 0 0 0 0.185183 0 0 0 0 0.5375 0 0 0 0.08 0"/>
<feBlend mode="normal" in2="BackgroundImageFix" result="effect1_dropShadow_48_1417"/>
<feBlend mode="normal" in="SourceGraphic" in2="effect1_dropShadow_48_1417" result="shape"/>
</filter>
<clipPath id="clip0_48_1417">
<rect width="44" height="44" fill="white" transform="translate(142 42)"/>
</clipPath>
</defs>
</svg>
