<svg width="24" height="24" viewBox="0 0 24 24" fill="none" xmlns="http://www.w3.org/2000/svg">
<g clip-path="url(#clip0_34_2272)">
<g clip-path="url(#clip1_34_2272)">
<path d="M21.7662 2.37001C21.4329 1.97134 20.8662 1.87167 20.4329 2.17067L18.4996 3.49957C17.5996 2.53612 16.3329 2.00456 14.9662 2.00456C12.2662 2.00456 10.0329 4.19725 10.0329 6.92149C10.0329 7.32016 10.0662 7.68561 10.1662 8.05106C7.83289 7.55272 6.43289 5.85837 5.89955 2.8019C5.83289 2.40323 5.53289 2.10423 5.13289 2.00456C4.76622 1.90489 4.36622 2.07101 4.13289 2.37001C4.06622 2.43645 -1.43378 10.0776 6.53289 16.556C5.76622 18.1839 3.46622 19.5793 2.56622 20.0444C2.13289 20.2437 1.93289 20.7088 2.03289 21.1739C2.13289 21.6391 2.53289 21.9381 2.99955 21.9381H4.73289C14.8662 21.9381 19.4662 16.9215 19.5662 5.69226L21.6662 3.69891C22.0662 3.36668 22.0996 2.76868 21.7662 2.37001Z" fill="#505F79"/>
</g>
</g>
<defs>
<clipPath id="clip0_34_2272">
<rect width="20" height="20" fill="white" transform="translate(2 2)"/>
</clipPath>
<clipPath id="clip1_34_2272">
<rect width="20" height="19.9667" fill="white" transform="translate(2 1.97168)"/>
</clipPath>
</defs>
</svg>
