<svg width="24" height="24" viewBox="0 0 24 24" fill="none" xmlns="http://www.w3.org/2000/svg">
<path fill-rule="evenodd" clip-rule="evenodd" d="M3.00012 7C3.00012 6.44772 3.44784 6 4.00012 6H20.0001C20.5524 6 21.0001 6.44772 21.0001 7C21.0001 7.55228 20.5524 8 20.0001 8H4.00012C3.44784 8 3.00012 7.55228 3.00012 7ZM3.00012 12C3.00012 11.4477 3.44784 11 4.00012 11L20.0001 11C20.5524 11 21.0001 11.4477 21.0001 12C21.0001 12.5523 20.5524 13 20.0001 13L4.00012 13C3.44784 13 3.00012 12.5523 3.00012 12ZM4.00012 16C3.44784 16 3.00012 16.4477 3.00012 17C3.00012 17.5523 3.44784 18 4.00012 18H20.0001C20.5524 18 21.0001 17.5523 21.0001 17C21.0001 16.4477 20.5524 16 20.0001 16H4.00012Z" fill="#28352F"/>
</svg>
