<svg width="68" height="110" viewBox="0 0 68 110" fill="none" xmlns="http://www.w3.org/2000/svg">
<path d="M71.8028 94.0771L115.808 109.042H52.6701L44.5754 108.159L40.6508 105.706L54.0437 94.0771H71.8028Z" fill="#172B4D"/>
<path d="M66.0137 66.601V64.2459C66.0137 64.2459 60.8626 54.0403 60.1267 53.9422C59.3909 53.8441 -0.460288 28.9189 -0.460288 28.9189L22.3518 73.3229L31.3786 82.9397L66.0137 66.601Z" fill="white" stroke="#36B37E" stroke-width="0.598795" stroke-miterlimit="10"/>
<mask id="mask0_73_259" style="mask-type:alpha" maskUnits="userSpaceOnUse" x="-1" y="28" width="68" height="56">
<path d="M66.1968 66.8676V64.5125C66.1968 64.5125 61.0457 54.3069 60.3098 54.2088C59.5739 54.1107 -0.277244 29.1855 -0.277244 29.1855L22.5349 73.5895L31.5616 83.2063L66.1968 66.8676Z" fill="white" stroke="#36B37E" stroke-width="0.598795" stroke-miterlimit="10"/>
</mask>
<g mask="url(#mask0_73_259)">
<path d="M41.043 55.0712L33.5371 55.3165L30.103 49.2324L22.8914 49.5759L26.2764 55.5128L19.1139 55.7581L22.4499 61.7931L29.6615 61.6459L37.1183 61.4496L40.7486 67.73L48.4508 67.6809L52.2773 74.1575H60.3719L56.3982 67.5828L52.5226 61.1062L44.7224 61.3025L41.043 55.0712Z" fill="#C5E9DA"/>
<path d="M37.4616 48.9371L33.9294 42.9512L26.6688 43.3437L30.1028 49.2315L37.4616 48.9371Z" fill="#36B37E"/>
<path d="M48.7453 54.7769L45.0168 48.5947L37.4619 48.9382L41.0431 55.0713L48.7453 54.7769Z" fill="#36B37E"/>
<path d="M52.7678 48.2503L48.9903 42.1172L41.3862 42.5097L45.0165 48.5938L52.7678 48.2503Z" fill="#36B37E"/>
<path d="M56.6434 54.531L48.7451 54.7764L52.5225 61.1058L60.5681 60.9586L68.8099 60.7623L64.7381 54.2857L60.7643 47.9072L52.7678 48.2507L56.6434 54.531Z" fill="#36B37E"/>
<path d="M15.876 49.8703L22.8913 49.5759L19.6044 43.6881L26.6688 43.3446L23.3329 37.5059L16.3666 37.9474L9.54748 38.389L12.6872 44.0806L5.91716 44.424L-0.656655 44.7675L2.3359 50.4591L9.00783 50.1647L12.1476 56.0034L19.1138 55.7581L15.876 49.8703Z" fill="#172B4D"/>
<path d="M5.37747 56.1992L8.46814 62.087L15.3854 61.9398L12.1475 56.0029L5.37747 56.1992Z" fill="#36B37E"/>
<path d="M-0.0679492 33.2856L2.87555 38.8299L9.54749 38.3883L6.45681 32.7949L-0.0679492 33.2856Z" fill="#36B37E"/>
<path d="M33.9295 42.9516L41.3863 42.51L37.8051 36.5731L34.3219 30.7344L27.1104 31.2741L20.046 31.8138L23.3329 37.5054L30.4954 37.0638L33.9295 42.9516Z" fill="#36B37E"/>
<path d="M53.0132 35.5918L45.3111 36.0824L48.9904 42.1175L56.8398 41.7249L53.0132 35.5918Z" fill="#36B37E"/>
<path d="M68.9081 47.5635L64.8853 41.2832L56.8397 41.7248L60.7644 47.907L68.9081 47.5635Z" fill="#36B37E"/>
<path d="M15.3855 61.9392L18.6724 68.0233L25.8349 67.9251L22.4499 61.792L15.3855 61.9392Z" fill="#36B37E"/>
</g>
<path d="M52.67 65.0303L25.1974 70.9181L24.5106 72.7335L30.6429 81.1236L52.67 65.0303Z" fill="#172B4D"/>
<path d="M76.1198 72.5377L70.5762 67.8274L61.991 61.3018L40.2582 70.0354L39.277 75.2853L44.5753 82.7923L76.1198 72.5377Z" fill="white" stroke="#36B37E" stroke-width="0.598795" stroke-miterlimit="10"/>
<path d="M64.9837 76.1189L81.0258 70.918L71.8028 94.0767L58.557 94.9108L64.9837 76.1189Z" fill="white" stroke="#36B37E" stroke-width="0.598795" stroke-miterlimit="10"/>
<path d="M47.7641 81.6635L44.5754 82.792L43.1036 103.743L44.5754 108.159L58.557 94.9111L64.9836 76.1191L47.7641 81.6635Z" fill="white" stroke="#36B37E" stroke-width="0.598795" stroke-miterlimit="10"/>
<path d="M90.6902 67.8271L118.408 82.792L47.7642 81.6635L90.6902 67.8271Z" fill="#C5E9DA" stroke="#36B37E" stroke-width="0.598795" stroke-miterlimit="10"/>
<path d="M44.5753 82.7922V79.3576L22.3519 48.79L19.4084 53.4512L40.6507 105.706L43.1036 103.743L44.5753 82.7922Z" fill="white" stroke="#36B37E" stroke-width="0.598795" stroke-miterlimit="10"/>
<path d="M22.3519 48.7898L19.4084 53.4509L9.49859 62.6752L17.3479 46.8271L22.3519 48.7898Z" fill="white" stroke="#36B37E" stroke-width="0.598795" stroke-miterlimit="10"/>
<path d="M75.335 85.1477L47.7642 81.6641L76.5614 82.1547L75.335 85.1477Z" fill="#172B4D"/>
<path d="M50.7567 80.731L41.1412 72.7334L40.7488 74.1072L44.5753 79.3572V82.7918L50.7567 80.731Z" fill="#172B4D"/>
<path d="M38.5904 100.701L36.3337 103.498L33.3902 100.701L18.0349 54.7759L19.4086 53.4512L38.5904 100.701Z" fill="#C5E9DA" stroke="#36B37E" stroke-width="0.598795" stroke-miterlimit="10"/>
</svg>
