<svg width="237" height="131" viewBox="0 0 237 131" fill="none" xmlns="http://www.w3.org/2000/svg">
<path d="M-3.57568 130.819L224.862 127.866L136.341 103.513L146.318 82.4073L202.935 74.6376L188.433 71.2746L149.451 69.5352L-3.57568 130.819Z" fill="#172B4D"/>
<path d="M122.766 23.0336L115.805 23.1496L57.9126 1.58008L123.347 38.6889L134.02 29.8756L122.766 23.0336Z" fill="#36B37E"/>
<path d="M122.767 23.0334L235.42 2.3916L179.151 57.0111L122.767 23.0334Z" fill="#172B4D"/>
<path d="M57.9126 1.58008L170.334 65.4768L145.042 70.1154L83.0884 74.6381L57.9126 1.58008Z" fill="white" stroke="#36B37E" stroke-width="1.43685" stroke-miterlimit="10" stroke-linejoin="round"/>
<path d="M170.333 65.4766L235.419 2.3916L188.432 71.2748L170.333 65.4766Z" fill="white" stroke="#36B37E" stroke-width="1.43685" stroke-miterlimit="10" stroke-linejoin="round"/>
<path d="M123.347 38.6893L152.467 14.6846L155.484 17.1198L146.318 51.7934L123.347 38.6893Z" fill="white" stroke="#36B37E" stroke-width="1.43685" stroke-miterlimit="10" stroke-linejoin="round"/>
<path d="M155.483 17.1191L181.819 54.4599L170.334 65.4766L146.318 51.7927L155.483 17.1191Z" fill="white" stroke="#36B37E" stroke-width="1.43685" stroke-miterlimit="10" stroke-linejoin="round"/>
<path d="M188.433 71.2748L145.042 70.1152L170.334 65.4766L188.433 71.2748Z" fill="white" stroke="#36B37E" stroke-width="1.43685" stroke-miterlimit="10" stroke-linejoin="round"/>
<path d="M38.5379 53.4158L29.2565 55.0393L-52.4199 38.5723L42.7146 74.0576L55.1284 60.0258L38.5379 53.4158Z" fill="white" stroke="#36B37E" stroke-width="1.43685" stroke-miterlimit="10" stroke-linejoin="round"/>
<path d="M38.5381 53.4162L184.256 2.3916L120.795 86.4663L38.5381 53.4162Z" fill="#C5E9DA" stroke="#36B37E" stroke-width="1.43685" stroke-miterlimit="10"/>
<path d="M-52.4199 38.5723L111.049 99.4539L78.216 111.05L-3.46047 129.953L-52.4199 38.5723Z" fill="white" stroke="#36B37E" stroke-width="1.43685" stroke-miterlimit="10" stroke-linejoin="round"/>
<path d="M111.049 99.4543L184.256 2.3916L136.341 103.513L111.049 99.4543Z" fill="white" stroke="#36B37E" stroke-width="1.43685" stroke-miterlimit="10" stroke-linejoin="round"/>
<path d="M42.7144 74.0583L76.4755 36.1377L81.0002 38.573L76.1275 86.4665L42.7144 74.0583Z" fill="#36B37E"/>
<path d="M81.0002 38.5723L123.811 82.523L111.049 99.4539L76.1274 86.4658L81.0002 38.5723Z" fill="white" stroke="#36B37E" stroke-width="1.43685" stroke-miterlimit="10" stroke-linejoin="round"/>
<path d="M136.341 103.513L78.2158 111.051L111.049 99.4541L136.341 103.513Z" fill="white" stroke="#36B37E" stroke-width="1.43685" stroke-miterlimit="10" stroke-linejoin="round"/>
<mask id="mask0_73_397" style="mask-type:alpha" maskUnits="userSpaceOnUse" x="-54" y="38" width="166" height="92">
<path d="M-52.6226 39.0049L110.742 99.2111L78.3906 110.354L-3.28582 129.256L-52.6226 39.0049Z" fill="white" stroke="#36B37E" stroke-width="1.43685" stroke-miterlimit="10" stroke-linejoin="round"/>
</mask>
<g mask="url(#mask0_73_397)">
<path d="M45.731 101.889L27.9803 102.469L19.743 88.2051L2.68843 88.9009L10.6937 103.049L-6.12891 103.512L1.64427 117.776L18.8149 117.428L36.3335 116.964L44.9189 131.924L63.2496 131.692L72.299 146.999H91.3259L82.0445 131.46L72.8791 116.269L54.3163 116.617L45.731 101.889Z" fill="#C5E9DA"/>
<path d="M37.1459 87.3938L28.7927 73.2461L11.6221 74.1738L19.7433 88.2056L37.1459 87.3938Z" fill="#C5E9DA"/>
<path d="M63.8301 101.31L55.1287 86.582L37.146 87.3938L45.7313 101.889L63.8301 101.31Z" fill="#36B37E"/>
<path d="M73.4594 85.886L64.526 71.2744L46.4272 72.3181L55.1286 86.5818L73.4594 85.886Z" fill="#172B4D"/>
<path d="M82.5089 100.614L63.8301 101.309L72.8795 116.269L91.7903 115.805L111.281 115.341L101.652 100.034L92.2544 85.0742L73.4595 85.886L82.5089 100.614Z" fill="#36B37E"/>
<path d="M-13.902 89.5972L2.68848 88.9014L-5.08471 75.1016L11.6218 74.1739L3.73264 60.374L-12.7419 61.4177L-28.8683 62.4614L-21.4432 75.9133L-37.3376 76.8411L-53 77.6528L-45.9229 90.9888L-30.0285 90.293L-22.6034 104.093L-6.12886 103.513L-13.902 89.5972Z" fill="#36B37E"/>
<path d="M28.7925 73.2457L46.4272 72.3179L37.9579 58.2862L29.7206 44.4863L12.666 45.7619L-4.04053 46.9216L3.73266 60.3735L20.6712 59.3299L28.7925 73.2457Z" fill="#36B37E"/>
<path d="M74.0395 55.9668L55.8247 57.1264L64.526 71.2742L83.0889 70.3465L74.0395 55.9668Z" fill="#36B37E"/>
<path d="M111.629 84.1463L102 69.3027L83.0889 70.3464L92.2543 85.074L111.629 84.1463Z" fill="#36B37E"/>
<path d="M-15.062 118.124L-7.28883 132.504L9.64976 132.272L1.64454 117.776L-15.062 118.124Z" fill="#36B37E"/>
</g>
</svg>
