<svg width="222" height="494" viewBox="0 0 222 494" fill="none" xmlns="http://www.w3.org/2000/svg">
<path d="M99.2845 488.708L280.943 459.478L381.493 443.299L325.27 384.507L60.9376 427.039L69.2653 454.577L99.2845 488.708Z" fill="#172B4D"/>
<path d="M262.619 7.95481L316.682 40.5089L166.467 464.605L99.2844 488.708L69.2652 454.577L60.9375 427.04L159.525 184.972L183.462 162.786L173.806 139.816L218.163 26.567L262.619 7.95481Z" fill="white"/>
<mask id="mask0_34_2616" style="mask-type:alpha" maskUnits="userSpaceOnUse" x="60" y="7" width="257" height="482">
<path d="M262.619 7.95481L316.682 40.5089L166.467 464.605L99.2844 488.708L69.2652 454.577L60.9375 427.04L159.525 184.972L183.462 162.786L173.806 139.816L218.163 26.567L262.619 7.95481Z" fill="white"/>
</mask>
<g mask="url(#mask0_34_2616)">
<path d="M151.766 227.931L159.257 206.099L180.296 202.943L187.447 181.854L166.631 184.974L173.854 164.331L153.002 167.228L145.368 188.166L137.583 209.587L115.649 212.887L107.301 235.086L84.5461 238.976L75.6716 262.177L98.8377 257.991L121.593 254.1L129.646 231.49L151.766 227.931Z" fill="#C5E9DA"/>
<path d="M173.181 224.256L194.185 220.877L201.076 199.6L180.296 202.943L173.181 224.256Z" fill="#36B37E"/>
<path d="M143.866 250.059L165.727 246.312L173.181 224.257L151.767 227.932L143.866 250.059Z" fill="#36B37E"/>
<path d="M158.121 268.849L179.947 264.879L187.141 242.637L165.727 246.312L158.121 268.849Z" fill="#172B4D"/>
<path d="M135.885 273.115L143.865 250.059L121.593 254.101L113.165 277.229L104.622 301.064L127.716 296.431L150.4 292.094L158.121 268.85L135.885 273.115Z" fill="#172B4D"/>
<path d="M194.259 161.506L187.447 181.854L207.816 178.805L201.076 199.6L221.446 196.551L227.998 176.016L234.176 156L214.441 158.717L220.878 138.888L227.199 119.766L207.616 122L201.107 141.382L180.925 144.171L173.854 164.331L194.259 161.506Z" fill="#36B37E"/>
<path d="M187.586 124.307L167.368 126.872L160.261 146.809L180.925 144.172L187.586 124.307Z" fill="#172B4D"/>
<path d="M194.184 220.877L187.141 242.637L208.109 239.034L228.594 235.279L235.039 214.074L241.332 193.352L221.445 196.551L214.965 217.533L194.184 220.877Z" fill="#36B37E"/>
<path d="M194.202 283.671L201.325 260.981L179.947 264.88L172.413 287.864L194.202 283.671Z" fill="#36B37E"/>
<path d="M142.303 315.857L164.727 311.332L172.413 287.864L150.4 292.094L142.303 315.857Z" fill="#36B37E"/>
<path d="M160.261 146.809L139.373 149.482L131.667 169.974L153.002 167.228L160.261 146.809Z" fill="#36B37E"/>
</g>
<path d="M262.619 7.95481L99.2844 488.708L166.467 464.605L316.682 40.5089L262.619 7.95481Z" fill="#C5E9DA"/>
<path d="M262.619 7.95481L316.682 40.5089L166.467 464.605L99.2844 488.708L69.2652 454.577L60.9375 427.04L159.525 184.972L183.462 162.785L173.806 139.816L218.163 26.567L262.619 7.95481Z" stroke="#36B37E" stroke-width="1.57158" stroke-miterlimit="10" stroke-linejoin="round"/>
<path d="M204.393 178.899L225.324 195.011L197.393 199.506L204.393 178.899Z" fill="white"/>
<path d="M262.161 194.585L225.324 195.012L204.393 178.899L183.462 162.786" stroke="#36B37E" stroke-width="1.57158" stroke-miterlimit="10" stroke-linejoin="round"/>
<path d="M225.324 195.011L197.393 199.505L169.28 282.639" stroke="#36B37E" stroke-width="1.57158" stroke-miterlimit="10" stroke-linejoin="round"/>
<path d="M297.59 94.2303L251.116 41.891L207.442 53.9604" stroke="#36B37E" stroke-width="1.57158" stroke-miterlimit="10" stroke-linejoin="round"/>
<path d="M220.373 50.2758L211.179 44.4212" stroke="#36B37E" stroke-width="1.57158" stroke-miterlimit="10" stroke-linejoin="round"/>
<path d="M162.28 303.246L126.02 267.369L60.9375 427.039L69.2652 454.577L99.2844 488.708L162.28 303.246Z" fill="white" stroke="#36B37E" stroke-width="1.57158" stroke-miterlimit="10" stroke-linejoin="round"/>
<path d="M217.344 323.492L158.081 315.61L153.325 294.603L164.458 299.687L217.344 323.492Z" fill="#172B4D"/>
</svg>
