<svg width="131" height="106" viewBox="0 0 131 106" fill="none" xmlns="http://www.w3.org/2000/svg">
<path d="M30.5307 94.4233L34.5421 86.0787C34.6437 85.8672 34.8165 85.6982 35.0302 85.6012L95.7215 58.0672C96.0167 57.9333 96.3584 57.9508 96.6384 58.1141L126.959 75.7953C127.73 76.2447 127.571 77.4019 126.708 77.6269L49.9338 97.6344C49.8194 97.6642 49.7006 97.6735 49.5829 97.6618L31.3332 95.8517C30.6425 95.7832 30.2299 95.049 30.5307 94.4233Z" fill="#172B4D"/>
<g clip-path="url(#clip0_34_2668)">
<path d="M34.1646 29.8427L17.1455 75.9292L36.9864 89.1267L94.5732 61.7755L112.237 38.0035L69.7314 24.7129L34.1646 29.8427Z" fill="white" stroke="#36B37E" stroke-width="1.63467" stroke-miterlimit="10" stroke-linejoin="round"/>
<path d="M54.1897 48.382L56.0833 52.3688L94.5732 61.7759L97.2053 58.1732L112.237 38.0039L69.7314 24.7133L54.1897 48.382Z" fill="#C5E9DA" stroke="#36B37E" stroke-width="1.63467" stroke-miterlimit="10" stroke-linejoin="round"/>
<path d="M69.7315 24.7137L56.342 46.8173L17.1456 75.93" fill="white"/>
<path d="M69.7315 24.7137L56.342 46.8173L17.1456 75.93" stroke="#36B37E" stroke-width="1.63467" stroke-miterlimit="10" stroke-linejoin="round"/>
<path d="M49.2173 52.0107L51.0412 41.3721L61.1853 38.7257L56.0833 52.369L49.2173 52.0107Z" fill="#172B4D" stroke="#36B37E" stroke-width="1.63467" stroke-miterlimit="10" stroke-linejoin="round"/>
<path d="M94.5729 61.7762L56.083 52.3691" stroke="#36B37E" stroke-width="1.63467" stroke-miterlimit="10" stroke-linejoin="round"/>
<path d="M81.2584 58.5089L87.9474 53.1603L87.2236 60.0189L82.1035 63.7175L81.2584 58.5089Z" fill="white" stroke="#36B37E" stroke-width="1.63467" stroke-miterlimit="10" stroke-linejoin="round"/>
<path d="M87.9471 53.1601L86.2979 29.8747" stroke="#36B37E" stroke-width="1.63467" stroke-miterlimit="10" stroke-linejoin="round"/>
<mask id="mask0_34_2668" style="mask-type:alpha" maskUnits="userSpaceOnUse" x="16" y="51" width="80" height="39">
<path d="M17.1456 75.9294L49.2174 52.0103L60.5241 53.3359L94.5733 61.7757L90.4388 63.7393L36.9864 89.1269L17.1456 75.9294Z" fill="white" stroke="#36B37E" stroke-width="1.63467" stroke-miterlimit="10" stroke-linejoin="round"/>
</mask>
<g mask="url(#mask0_34_2668)">
<path d="M50.141 63.535L54.5344 54.2092L64.3219 53.8588L68.4337 44.8929L59.1031 45.2525L63.3996 36.1989L53.7967 36.4616L49.5002 45.5152L44.8346 54.7441L34.7749 54.9975L30.0123 64.4987L19.5834 64.9275L14.3548 74.8763L24.9683 74.3598L35.3095 73.7465L40.169 63.973L50.141 63.535Z" fill="#36B37E"/>
<path d="M59.9285 63.1841L69.6283 62.6491L73.6525 53.4986L64.3219 53.8582L59.9285 63.1841Z" fill="#36B37E"/>
<path d="M45.4659 73.2202L55.5348 72.5099L59.9282 63.1841L50.1407 63.5344L45.4659 73.2202Z" fill="#C5E9DA"/>
<path d="M50.8599 82.1958L60.7443 81.5732L65.2346 71.9751L55.5348 72.51L50.8599 82.1958Z" fill="#36B37E"/>
<path d="M40.7911 82.9066L45.466 73.2208L35.3094 73.7465L30.4499 83.52L25.3966 93.8379L35.8347 92.9523L46.176 92.3389L50.8601 82.1963L40.7911 82.9066Z" fill="#36B37E"/>
<path d="M72.6333 36.1115L68.4337 44.8928L77.7644 44.5332L73.6525 53.4991L82.9831 53.1395L86.9104 44.2613L90.7408 35.6553L81.7793 35.8395L85.6974 27.4181L89.4309 19.0844L80.654 19.181L76.7359 27.6024L67.5022 27.6897L63.3996 36.1988L72.6333 36.1115Z" fill="#36B37E"/>
<path d="M69.6283 62.6494L65.235 71.9753L74.7502 71.528L84.1777 70.8962L88.2019 61.7457L92.1292 52.8674L82.9832 53.1393L78.959 62.2898L69.6283 62.6494Z" fill="#36B37E"/>
<path d="M66.226 90.7334L70.6286 80.9507L60.7442 81.5733L56.3416 91.356L66.226 90.7334Z" fill="#36B37E"/>
<path d="M41.4918 102.481L51.6577 101.498L56.3418 91.3558L46.1759 92.3384L41.4918 102.481Z" fill="#36B37E"/>
</g>
</g>
<defs>
<clipPath id="clip0_34_2668">
<rect width="105.273" height="67.1849" fill="white" transform="translate(0 45.165) rotate(-25.4057)"/>
</clipPath>
</defs>
</svg>
