<svg width="194" height="352" viewBox="0 0 194 352" fill="none" xmlns="http://www.w3.org/2000/svg">
<path d="M118.599 241.792L20.9609 246.078C20.6 246.078 20.0582 246.26 19.6964 246.621L-12.8637 279.148C-13.2255 279.51 -13.4073 280.051 -13.409 280.773L-12.0396 311.81C-12.0422 312.893 -11.1421 313.794 -9.87844 313.612L73.8756 304.473C74.4175 304.291 74.9592 304.11 75.321 303.749L93.4325 276.294L93.6133 276.114L120.395 245.038C121.301 243.773 120.223 241.609 118.599 241.792Z" fill="#172B4D"/>
<path d="M79.1709 70.2809L-30.771 78.9373L-59.2615 122.881L-31.8518 238.44L0.593824 263.636L64.3491 258.633L75.942 225.449L108.733 189.451L79.1709 70.2809Z" fill="white" stroke="#36B37E" stroke-width="1.55764" stroke-miterlimit="10" stroke-linejoin="round"/>
<path d="M75.942 225.449L17.8668 122.162L79.1709 70.2811L108.733 189.451L75.942 225.449Z" fill="#C5E9DA" stroke="#36B37E" stroke-width="1.55764" stroke-miterlimit="10" stroke-linejoin="round"/>
<path d="M64.3493 258.634L49.5947 178.319L75.9422 225.449L64.3493 258.634Z" fill="white" stroke="#36B37E" stroke-width="1.55764" stroke-miterlimit="10" stroke-linejoin="round"/>
<path d="M-59.2616 122.882L17.8667 122.162" stroke="#36B37E" stroke-width="1.55764" stroke-miterlimit="10" stroke-linejoin="round"/>
<path d="M32.238 109.966L11.0463 111.693L4.83141 122.222L27.9054 139.858L32.238 109.966Z" fill="#C5E9DA" stroke="#36B37E" stroke-width="1.55764" stroke-miterlimit="10" stroke-linejoin="round"/>
<mask id="mask0_73_467" style="mask-type:alpha" maskUnits="userSpaceOnUse" x="-70" y="56" width="147" height="80">
<path d="M-13.2932 99.6432L1.13309 103.954L10.7211 94.0157L24.4256 98.3277L14.8384 107.905L28.3628 112.037L18.9557 121.795L5.25038 117.844L-8.81585 113.893L-18.9457 124.013L-33.7337 120.063L-44.2253 130.544L-59.7352 126.596L-48.7018 115.933L-38.2102 105.452L-23.423 109.763L-13.2932 99.6432Z" fill="#C5E9DA"/>
<path d="M-3.16405 89.8843L6.604 80.1261L20.3084 84.4381L10.7213 94.0156L-3.16405 89.8843Z" fill="#36B37E"/>
<path d="M37.589 102.46L24.4255 98.3274L33.6517 88.7504L20.3082 84.4379L29.7145 75.0411L42.6971 79.3541L55.3188 83.6676L46.6344 93.0634L59.2569 97.0159L71.6986 101.149L63.1951 110.364L50.5725 106.412L41.3463 115.989L28.3628 112.037L37.589 102.46Z" fill="#5E78A5"/>
<path d="M54.3299 119.94L45.4646 129.517L32.3002 125.746L41.3464 115.988L54.3299 119.94Z" fill="#36B37E"/>
<path d="M76.4443 78.7661L67.9408 87.9812L55.3191 83.6677L64.1835 74.4521L76.4443 78.7661Z" fill="#36B37E"/>
<path d="M6.60412 80.1259L-7.28035 75.6337L2.3068 66.0562L12.074 56.6589L25.5975 61.1516L38.7593 66.0057L29.7148 75.041L16.1913 70.5484L6.60412 80.1259Z" fill="#36B37E"/>
<path d="M32.3 125.746L23.0728 135.684L9.18665 131.913L18.9556 121.794L32.3 125.746Z" fill="#36B37E"/>
</mask>
<g mask="url(#mask0_73_467)">
<path d="M-31.2904 79.4566L78.2671 71.1842L28.5314 111.951L10.1008 113.395L3.69782 123.327L-59.5463 123.166L-31.2904 79.4566Z" fill="#36B37E" stroke="#36B37E" stroke-width="1.55764" stroke-miterlimit="10" stroke-linejoin="round"/>
</g>
</svg>
