<svg width="57" height="146" viewBox="0 0 57 146" fill="none" xmlns="http://www.w3.org/2000/svg">
<path d="M77.3816 2.62873L93.2511 12.1845L49.1577 136.671L29.4374 143.746L20.6257 133.728L18.1812 125.645L47.1199 54.5894L54.1464 48.0769L51.3121 41.3347L64.3324 8.09206L77.3816 2.62873Z" fill="white"/>
<mask id="mask0_48_1062" style="mask-type:alpha" maskUnits="userSpaceOnUse" x="18" y="2" width="76" height="142">
<path d="M77.3816 2.62873L93.2511 12.1845L49.1577 136.671L29.4374 143.746L20.6257 133.728L18.1812 125.645L47.1199 54.5894L54.1464 48.0769L51.3121 41.3347L64.3324 8.09206L77.3816 2.62873Z" fill="white"/>
</mask>
<g mask="url(#mask0_48_1062)">
<path d="M44.8428 67.1984L47.0414 60.79L53.2172 59.8635L55.3163 53.673L49.2061 54.5889L51.3262 48.5295L45.2054 49.3798L42.9646 55.5259L40.6793 61.8137L34.2411 62.7823L31.7907 69.2985L25.1113 70.4405L22.5063 77.2506L29.3064 76.0219L35.9858 74.8799L38.3495 68.2431L44.8428 67.1984Z" fill="#C5E9DA"/>
<path d="M51.1286 66.1204L57.2939 65.1284L59.3169 58.8828L53.2172 59.8643L51.1286 66.1204Z" fill="#36B37E"/>
<path d="M42.5233 73.6949L48.9404 72.5951L51.1284 66.1211L44.8425 67.1998L42.5233 73.6949Z" fill="#36B37E"/>
<path d="M46.708 79.21L53.1145 78.0446L55.2264 71.5156L48.9405 72.5943L46.708 79.21Z" fill="#172B4D"/>
<path d="M40.1809 80.4628L42.5235 73.6948L35.9858 74.8813L33.512 81.6704L31.0042 88.6667L37.7832 87.3068L44.4416 86.0336L46.708 79.2107L40.1809 80.4628Z" fill="#172B4D"/>
<path d="M57.3157 47.7021L55.3161 53.6748L61.2952 52.78L59.3168 58.8839L65.2958 57.9891L67.2193 51.9614L69.0326 46.0859L63.2397 46.8834L65.1292 41.063L66.9848 35.4498L61.2364 36.1057L59.3258 41.795L53.4018 42.6136L51.3261 48.5313L57.3157 47.7021Z" fill="#36B37E"/>
<path d="M55.3569 36.7807L49.4223 37.5338L47.336 43.3859L53.4018 42.6117L55.3569 36.7807Z" fill="#172B4D"/>
<path d="M57.2938 65.1284L55.2263 71.5157L61.3811 70.4581L67.3941 69.356L69.2858 63.1316L71.1331 57.0488L65.2958 57.9881L63.3934 64.147L57.2938 65.1284Z" fill="#36B37E"/>
<path d="M57.299 83.5605L59.3898 76.9004L53.1145 78.0447L50.903 84.7915L57.299 83.5605Z" fill="#36B37E"/>
<path d="M42.0649 93.0097L48.6471 91.6815L50.903 84.793L44.4415 86.0345L42.0649 93.0097Z" fill="#36B37E"/>
<path d="M47.3361 43.3881L41.2048 44.1729L38.9429 50.1878L45.2054 49.3819L47.3361 43.3881Z" fill="#36B37E"/>
</g>
<path d="M77.3816 2.62873L29.4374 143.746L49.1577 136.671L93.2511 12.1845L77.3816 2.62873Z" fill="#C5E9DA"/>
<path d="M77.3816 2.62873L93.2511 12.1845L49.1577 136.671L29.4374 143.746L20.6257 133.728L18.1812 125.645L47.1199 54.5894L54.1464 48.0769L51.3121 41.3347L64.3324 8.09206L77.3816 2.62873Z" stroke="#36B37E" stroke-width="1.57158" stroke-miterlimit="10" stroke-linejoin="round"/>
<path d="M77.2473 57.4111L66.4344 57.5364L60.2905 52.8068L54.1465 48.0771" stroke="#36B37E" stroke-width="1.57158" stroke-miterlimit="10" stroke-linejoin="round"/>
<path d="M66.4344 57.5352L58.2358 58.8543L49.9835 83.2569" stroke="#36B37E" stroke-width="1.57158" stroke-miterlimit="10" stroke-linejoin="round"/>
<path d="M47.9288 89.3059L37.2852 78.7747L18.1812 125.644L20.6257 133.727L29.4374 143.745L47.9288 89.3059Z" fill="white" stroke="#36B37E" stroke-width="1.57158" stroke-miterlimit="10" stroke-linejoin="round"/>
<path d="M64.0917 95.2506L46.696 92.9368L45.3001 86.7704L48.5681 88.2628L64.0917 95.2506Z" fill="#172B4D"/>
<path d="M29.4373 143.747L82.7605 135.167L112.275 130.418L95.772 113.161L18.1811 125.645L20.6256 133.728L29.4373 143.747Z" fill="#172B4D"/>
</svg>
