<svg width="375" height="650" viewBox="0 0 375 650" fill="none" xmlns="http://www.w3.org/2000/svg">
<path d="M-71.4806 468.094L44.3004 393.777" stroke="#A5ADBA" stroke-width="0.426199" stroke-miterlimit="10" stroke-linecap="round" stroke-dasharray="0.43 0.43"/>
<path d="M-105.984 368.193L25.6795 342.365" stroke="#A5ADBA" stroke-width="0.426199" stroke-miterlimit="10" stroke-linecap="round" stroke-dasharray="0.43 0.43"/>
<path d="M-107.628 261.104L24.0361 286.932" stroke="#A5ADBA" stroke-width="0.426199" stroke-miterlimit="10" stroke-linecap="round" stroke-dasharray="0.43 0.43"/>
<path d="M-76.3007 159.862L39.4802 234.179" stroke="#A5ADBA" stroke-width="0.426199" stroke-miterlimit="10" stroke-linecap="round" stroke-dasharray="0.43 0.43"/>
<path d="M-15.7264 76.6514L70.2604 190.564" stroke="#A5ADBA" stroke-width="0.426199" stroke-miterlimit="10" stroke-linecap="round" stroke-dasharray="0.43 0.43"/>
<path d="M66.8653 21.583L112.542 161.202" stroke="#A5ADBA" stroke-width="0.426199" stroke-miterlimit="10" stroke-linecap="round" stroke-dasharray="0.43 0.43"/>
<path d="M166.215 1.11523V149.749" stroke="#A5ADBA" stroke-width="0.426199" stroke-miterlimit="10" stroke-linecap="round" stroke-dasharray="0.43 0.43"/>
<path d="M256.365 17.9277L210.688 157.547" stroke="#A5ADBA" stroke-width="0.426199" stroke-miterlimit="10" stroke-linecap="round" stroke-dasharray="0.43 0.43"/>
<path d="M340.599 69.8271L254.722 183.618" stroke="#A5ADBA" stroke-width="0.426199" stroke-miterlimit="10" stroke-linecap="round" stroke-dasharray="0.43 0.43"/>
<path d="M403.692 150.602L288.021 224.919" stroke="#A5ADBA" stroke-width="0.426199" stroke-miterlimit="10" stroke-linecap="round" stroke-dasharray="0.43 0.43"/>
<path d="M438.197 250.626L306.642 276.332" stroke="#A5ADBA" stroke-width="0.426199" stroke-miterlimit="10" stroke-linecap="round" stroke-dasharray="0.43 0.43"/>
<path d="M439.95 357.594L308.286 331.766" stroke="#A5ADBA" stroke-width="0.426199" stroke-miterlimit="10" stroke-linecap="round" stroke-dasharray="0.43 0.43"/>
<path d="M408.513 458.836L292.841 384.519" stroke="#A5ADBA" stroke-width="0.426199" stroke-miterlimit="10" stroke-linecap="round" stroke-dasharray="0.43 0.43"/>
<path d="M347.939 542.047L262.061 428.135" stroke="#A5ADBA" stroke-width="0.426199" stroke-miterlimit="10" stroke-linecap="round" stroke-dasharray="0.43 0.43"/>
<path d="M265.456 597.237L219.779 457.496" stroke="#A5ADBA" stroke-width="0.426199" stroke-miterlimit="10" stroke-linecap="round" stroke-dasharray="0.43 0.43"/>
<path d="M166.215 564.707L166.215 468.947" stroke="#A5ADBA" stroke-width="0.426199" stroke-miterlimit="10" stroke-linecap="round" stroke-dasharray="0.43 0.43"/>
<path d="M75.8476 600.89L121.634 461.149" stroke="#A5ADBA" stroke-width="0.426199" stroke-miterlimit="10" stroke-linecap="round" stroke-dasharray="0.43 0.43"/>
<path d="M-8.27754 548.869L77.5997 435.078" stroke="#A5ADBA" stroke-width="0.426199" stroke-miterlimit="10" stroke-linecap="round" stroke-dasharray="0.43 0.43"/>
<path d="M-71.4806 468.094L44.3004 393.777" stroke="#A5ADBA" stroke-width="0.426199" stroke-miterlimit="10" stroke-linecap="round" stroke-dasharray="0.43 0.43"/>
<path d="M-105.984 368.193L25.6795 342.365" stroke="#A5ADBA" stroke-width="0.426199" stroke-miterlimit="10" stroke-linecap="round" stroke-dasharray="0.43 0.43"/>
<path d="M-107.628 261.104L24.0361 286.932" stroke="#A5ADBA" stroke-width="0.426199" stroke-miterlimit="10" stroke-linecap="round" stroke-dasharray="0.43 0.43"/>
<path d="M-76.3007 159.862L39.4802 234.179" stroke="#A5ADBA" stroke-width="0.426199" stroke-miterlimit="10" stroke-linecap="round" stroke-dasharray="0.43 0.43"/>
<path d="M-15.7264 76.6514L70.2604 190.564" stroke="#A5ADBA" stroke-width="0.426199" stroke-miterlimit="10" stroke-linecap="round" stroke-dasharray="0.43 0.43"/>
<path d="M66.8653 21.583L112.542 161.202" stroke="#A5ADBA" stroke-width="0.426199" stroke-miterlimit="10" stroke-linecap="round" stroke-dasharray="0.43 0.43"/>
<g clip-path="url(#clip0_48_1090)">
<path d="M351.195 274.087L401.432 222.224L474.628 240.403L424.098 292.25L351.195 274.087Z" fill="#C5E9DA" stroke="#36B37E" stroke-width="0.976579" stroke-miterlimit="10" stroke-linejoin="round"/>
<path d="M393.325 319.294L351.196 274.089L424.099 292.251L393.325 319.294Z" fill="white" stroke="#36B37E" stroke-width="0.976579" stroke-miterlimit="10" stroke-linejoin="round"/>
<path d="M443.236 362.376L369.894 342.604L393.325 319.294L443.236 362.376Z" fill="#C5E9DA" stroke="#36B37E" stroke-width="0.976579" stroke-miterlimit="10" stroke-linejoin="round"/>
<path d="M351.196 274.089L369.893 342.603L393.325 319.294L351.196 274.089Z" fill="white" stroke="#36B37E" stroke-width="0.976579" stroke-miterlimit="10" stroke-linejoin="round"/>
<path d="M394.296 284.816L443.899 232.741L431.327 229.637L381.927 281.752L394.296 284.816Z" fill="#36B37E"/>
<path d="M381.926 281.752L391.69 317.53L370.211 294.464L365.622 277.648L381.926 281.752Z" fill="#36B37E"/>
<path d="M365.622 277.648L373.224 270.288L358.456 266.534L351.196 274.089L365.622 277.648Z" fill="#172B4D"/>
<path d="M388.878 274.473L395.959 266.966L379.858 262.903L372.573 270.369L388.878 274.473Z" fill="#172B4D"/>
<path d="M379.858 262.903L387.46 255.543L372.693 251.789L365.408 259.255L379.858 262.903Z" fill="#172B4D"/>
<path d="M391.366 321.271L393.325 319.294L377.383 344.692L369.894 342.603L391.366 321.271Z" fill="#172B4D"/>
</g>
<g opacity="0.88">
<g clip-path="url(#clip1_48_1090)">
<path d="M42.2705 505.106L24.8648 532.712L-9.19986 531.467L8.33684 503.841L42.2705 505.106Z" fill="#C5E9DA" stroke="#36B37E" stroke-width="0.474153" stroke-miterlimit="10" stroke-linejoin="round"/>
<path d="M8.33588 503.841L-9.20083 531.466L-22.7232 501.386L-6.64018 474.599L8.33588 503.841Z" fill="white" stroke="#36B37E" stroke-width="0.474153" stroke-miterlimit="10" stroke-linejoin="round"/>
<path d="M8.33576 503.841L19.437 489.022L-6.6403 474.6L8.33576 503.841Z" fill="white" stroke="#36B37E" stroke-width="0.474153" stroke-miterlimit="10" stroke-linejoin="round"/>
<path d="M19.4375 489.022L42.2699 505.105L8.33624 503.841L19.4375 489.022Z" fill="white" stroke="#36B37E" stroke-width="0.474153" stroke-miterlimit="10" stroke-linejoin="round"/>
<path d="M-6.64023 474.599L27.6373 476.535L19.4371 489.021L-6.64023 474.599Z" fill="#C5E9DA" stroke="#36B37E" stroke-width="0.474153" stroke-miterlimit="10" stroke-linejoin="round"/>
<path d="M42.2699 505.105L27.6377 476.536L19.4375 489.022L42.2699 505.105Z" fill="white" stroke="#36B37E" stroke-width="0.474153" stroke-miterlimit="10" stroke-linejoin="round"/>
<path d="M13.9049 496.421L10.5371 500.876L13.9049 496.421Z" fill="#644DF2"/>
<path d="M12.123 503.973L10.5376 500.877L8.33604 503.841L12.123 503.973Z" fill="#36B37E"/>
<path d="M12.1227 503.973L-4.98279 531.613L0.866433 531.818L17.8783 504.179L12.1227 503.973Z" fill="#36B37E"/>
<path d="M22.2096 504.363L5.10404 532.003L10.9533 532.209L27.9651 504.57L22.2096 504.363Z" fill="#36B37E"/>
<path d="M22.2094 504.363L16.3259 492.876L13.9052 496.422L17.8784 504.18L22.2094 504.363Z" fill="#36B37E"/>
<path d="M27.9648 504.569L20.324 489.65L31.9667 497.858L35.5579 504.87L27.9648 504.569Z" fill="#36B37E"/>
<path d="M35.5582 504.87L32.8791 508.832L39.7599 509.121L42.2698 505.105L35.5582 504.87Z" fill="#172B4D"/>
<path d="M25.566 508.435L23.1307 512.413L30.6301 512.715L33.1591 508.736L25.566 508.435Z" fill="#172B4D"/>
<path d="M30.6305 512.714L27.9513 516.676L34.8321 516.965L37.3612 512.986L30.6305 512.714Z" fill="#172B4D"/>
<path d="M20.1203 487.965L19.4371 489.021L24.1305 476.307L27.6373 476.535L20.1203 487.965Z" fill="#172B4D"/>
<path d="M-12.7485 511.485L-15.0089 506.428L-11.9294 501.225L-9.57534 506.282L0.848266 489.22C0.848266 489.22 -5.64645 476.539 -6.63976 474.599C-7.63307 472.66 -22.7419 501.349 -22.7419 501.349L-15.8852 516.575L-12.7485 511.485Z" fill="#172B4D"/>
</g>
</g>
<g opacity="0.32">
<g clip-path="url(#clip2_48_1090)">
<path d="M35.2614 135.484L43.0414 145.395L38.1693 157.62L30.399 147.659L35.2614 135.484Z" fill="#C5E9DA" stroke="#36B37E" stroke-width="0.474153" stroke-miterlimit="10" stroke-linejoin="round"/>
<path d="M30.3987 147.658L38.169 157.619L25.4766 158.633L17.8227 149.31L30.3987 147.658Z" fill="white" stroke="#36B37E" stroke-width="0.474153" stroke-miterlimit="10" stroke-linejoin="round"/>
<path d="M30.3987 147.658L26.4502 141.699L17.8227 149.31L30.3987 147.658Z" fill="white" stroke="#36B37E" stroke-width="0.474153" stroke-miterlimit="10" stroke-linejoin="round"/>
<path d="M26.4497 141.699L35.2605 135.483L30.3981 147.659L26.4497 141.699Z" fill="white" stroke="#36B37E" stroke-width="0.474153" stroke-miterlimit="10" stroke-linejoin="round"/>
<path d="M17.8221 149.311L22.9733 137.097L26.4497 141.699L17.8221 149.311Z" fill="#C5E9DA" stroke="#36B37E" stroke-width="0.474153" stroke-miterlimit="10" stroke-linejoin="round"/>
<path d="M35.2605 135.483L22.9733 137.097L26.4497 141.699L35.2605 135.483Z" fill="white" stroke="#36B37E" stroke-width="0.474153" stroke-miterlimit="10" stroke-linejoin="round"/>
<path d="M28.4227 144.671L29.6059 146.474L28.4227 144.671Z" fill="#644DF2"/>
<path d="M30.9375 146.299L29.6061 146.474L30.3982 147.659L30.9375 146.299Z" fill="#36B37E"/>
<path d="M30.9375 146.3L38.769 156.106L39.6027 154.006L31.7594 144.234L30.9375 146.3Z" fill="#36B37E"/>
<path d="M32.388 142.682L40.2195 152.488L41.0532 150.388L33.2099 140.616L32.388 142.682Z" fill="#36B37E"/>
<path d="M32.3884 142.682L27.4478 143.331L28.4235 144.671L31.76 144.233L32.3884 142.682Z" fill="#36B37E"/>
<path d="M33.2097 140.616L26.7934 141.458L31.2887 138.29L34.3044 137.894L33.2097 140.616Z" fill="#36B37E"/>
<path d="M34.3046 137.894L35.3976 139.382L36.3956 136.917L35.2608 135.484L34.3046 137.894Z" fill="#172B4D"/>
<path d="M34.3041 141.99L35.4347 143.391L36.5175 140.703L35.3988 139.268L34.3041 141.99Z" fill="#172B4D"/>
<path d="M36.5174 140.703L37.6104 142.191L38.6084 139.727L37.4896 138.291L36.5174 140.703Z" fill="#172B4D"/>
<path d="M26.1543 141.314L26.4497 141.699L22.4352 138.343L22.9733 137.097L26.1543 141.314Z" fill="#172B4D"/>
<path d="M34.2132 157.943L32.6986 156.102L29.8628 156.377L31.355 158.172L34.2132 157.943Z" fill="#36B37E"/>
<path d="M30.4428 156.317L28.3106 156.483L26.8184 154.688L28.9624 154.488L24.1106 148.484C24.1106 148.484 18.6567 149.201 17.8226 149.31C16.9885 149.42 25.4605 158.636 25.4605 158.636L31.8868 158.118L30.4428 156.317Z" fill="#172B4D"/>
</g>
</g>
<g clip-path="url(#clip3_48_1090)">
<path d="M387.404 90.1839L341.006 84.0286L321.633 65.2342L324.204 17.7653L330.506 8.68429L344.563 10.65L389.895 59.4968L387.404 90.1839Z" fill="#C5E9DA" stroke="#36B37E" stroke-width="0.646395" stroke-miterlimit="10" stroke-linejoin="round"/>
<path d="M356.709 86.1134L355.637 72.466C355.637 72.466 350.95 85.3425 349 85.091C346.997 84.8026 356.709 86.1134 356.709 86.1134Z" fill="#36B37E"/>
<path d="M367.799 87.5928L378.432 47.2135" stroke="#36B37E" stroke-width="0.646395" stroke-miterlimit="10"/>
<path d="M375.752 57.3135L374.954 43.3842" stroke="#36B37E" stroke-width="0.646395" stroke-miterlimit="10"/>
<path d="M323.984 27.748L342.948 40.0649L347.642 45.5614L342.719 49.2449L323.649 33.6904L323.984 27.748Z" fill="white" stroke="#36B37E" stroke-width="0.646395"/>
<path d="M355.449 79.0312L355.591 57.9651" stroke="#36B37E" stroke-width="0.646395" stroke-miterlimit="10"/>
<path d="M323.451 31.4899L323.635 31.2243L329.282 34.1986L338.568 42.9249L343.163 39.819L344.585 10.6719L330.528 8.70622L324.226 17.7872L323.451 31.4899Z" fill="#172B4D"/>
<path d="M328.95 34.6758L323.463 31.8121L321.655 65.2554L341.029 84.0498L342.711 49.6538L340.274 45.6815L328.95 34.6758Z" fill="#172B4D"/>
</g>
<g opacity="0.48" clip-path="url(#clip4_48_1090)">
<path d="M144.187 479.974L158.006 488.403C158.006 488.403 160.052 490.015 158.128 493.487C156.204 496.959 153.873 496.117 153.873 496.117L139.521 487.857C139.521 487.857 137.821 486.29 139.526 483.079C141.499 479.343 144.187 479.974 144.187 479.974Z" fill="#C5E9DA" stroke="#36B37E" stroke-width="0.121852" stroke-miterlimit="10"/>
<path d="M144.187 479.975C144.187 479.975 146.145 481.176 144.056 485.129C142.092 488.831 139.521 487.857 139.521 487.857C139.521 487.857 137.869 486.153 139.526 483.079C141.183 480.006 143.171 479.951 144.187 479.975Z" fill="#36B37E"/>
<path d="M156.909 487.73C156.909 487.73 155.631 489.675 152.267 491.019C148.699 492.448 146.667 491.97 146.667 491.97L149.549 493.634C149.549 493.634 151.062 493.954 154.792 492.213C157.837 490.795 158.706 489.395 158.706 489.395L157.989 488.4L156.909 487.73Z" fill="#172B4D"/>
<path d="M152.01 484.785C152.01 484.785 150.773 486.527 147.113 487.714C143.453 488.901 140.941 488.689 140.941 488.689L143.824 490.353C143.824 490.353 146.159 490.65 149.457 489.287C152.514 488.015 154.259 486.16 154.259 486.16L152.491 485.076L152.01 484.785Z" fill="#36B37E"/>
<path d="M144.056 485.129C144.056 485.129 147.891 485.418 150.145 483.602L147.672 482.1C147.672 482.1 146.545 482.529 145.002 482.281C145.002 482.281 144.595 484.065 144.056 485.129Z" fill="#172B4D"/>
<path d="M142.591 483.613L142.104 484.244L142.267 487.134C142.267 487.134 143.386 486.362 144.055 485.129L143.462 483.703L142.591 483.613Z" fill="white" stroke="#36B37E" stroke-width="0.121852" stroke-miterlimit="10"/>
<path d="M144.785 480.857C144.785 480.857 144.62 480.155 144.181 479.966L141.86 483.323C141.86 483.323 142.667 483.6 142.868 483.712C143.075 483.834 143.455 484.042 143.455 484.042L144.878 483.117C144.884 483.127 145.372 481.995 144.785 480.857Z" fill="white" stroke="#36B37E" stroke-width="0.121852" stroke-miterlimit="10"/>
<path d="M158.514 492.676C158.514 492.676 156.442 494.141 153.914 494.605C151.565 495.04 151.348 494.673 151.348 494.673L153.873 496.118C153.873 496.118 154.951 496.482 156.302 495.652C157.654 494.822 158.514 492.676 158.514 492.676Z" fill="#36B37E"/>
<path d="M142.874 483.721C142.874 483.721 142.693 482.637 142.476 482.27C142.259 481.903 142.211 481.79 142.211 481.79L141.697 482.7L141.865 483.332L142.874 483.721Z" fill="white" stroke="#36B37E" stroke-width="0.121852" stroke-miterlimit="10"/>
<path d="M142.094 484.25L141.378 484.088L138.812 486.147C138.812 486.147 138.747 486.406 139.115 487.274L139.343 487.636L142.381 484.745C142.371 484.751 142.457 484.328 142.094 484.25Z" fill="white" stroke="#36B37E" stroke-width="0.121852" stroke-miterlimit="10"/>
<path d="M142.094 484.25C142.094 484.25 141.143 485.931 141.18 485.897C141.217 485.863 142.641 484.964 142.641 484.964C142.641 484.964 142.59 484.241 142.094 484.25Z" fill="white" stroke="#36B37E" stroke-width="0.121852" stroke-miterlimit="10"/>
</g>
<g clip-path="url(#clip5_48_1090)">
<path d="M333.897 631.678L353.277 598.525C353.277 598.525 357.009 593.6 365.33 598.009C373.65 602.418 371.757 607.984 371.757 607.984L352.802 642.394C352.802 642.394 349.163 646.498 341.469 642.595C332.52 638.081 333.897 631.678 333.897 631.678Z" fill="#C5E9DA" stroke="#36B37E" stroke-width="0.289082" stroke-miterlimit="10"/>
<path d="M333.898 631.679C333.898 631.679 336.659 626.98 346.129 631.76C354.998 636.253 352.802 642.394 352.802 642.394C352.802 642.394 348.833 646.389 341.469 642.595C334.105 638.802 333.887 634.088 333.898 631.679Z" fill="#36B37E"/>
<path d="M351.726 601.157C351.726 601.157 356.397 604.101 359.734 612.021C363.282 620.421 362.239 625.263 362.239 625.263L366.059 618.351C366.059 618.351 366.749 614.747 362.454 605.978C358.955 598.819 355.597 596.819 355.597 596.819L353.267 598.564L351.726 601.157Z" fill="#172B4D"/>
<path d="M344.958 612.909C344.958 612.909 349.145 615.766 352.123 624.394C355.102 633.022 354.709 638.991 354.709 638.991L358.529 632.078C358.529 632.078 359.128 626.525 355.748 618.763C352.597 611.57 348.118 607.513 348.118 607.513L345.627 611.755L344.958 612.909Z" fill="#36B37E"/>
<path d="M346.129 631.761C346.129 631.761 346.644 622.651 342.235 617.385L338.783 623.317C338.783 623.317 339.849 625.973 339.331 629.643C339.331 629.643 343.581 630.528 346.129 631.761Z" fill="#172B4D"/>
<path d="M342.598 635.301L344.116 636.428L350.963 635.913C350.963 635.913 349.083 633.293 346.128 631.761L342.772 633.232L342.598 635.301Z" fill="white" stroke="#36B37E" stroke-width="0.289082" stroke-miterlimit="10"/>
<path d="M335.96 630.22C335.96 630.22 334.302 630.643 333.873 631.692L341.939 637.049C341.939 637.049 342.562 635.121 342.818 634.639C343.099 634.143 343.575 633.234 343.575 633.234L341.316 629.899C341.341 629.884 338.632 628.778 335.96 630.22Z" fill="white" stroke="#36B37E" stroke-width="0.289082" stroke-miterlimit="10"/>
<path d="M363.387 597.129C363.387 597.129 366.954 601.979 368.168 607.954C369.304 613.507 368.442 614.038 368.442 614.038L371.757 607.985C371.757 607.985 372.574 605.41 370.545 602.243C368.516 599.075 363.387 597.129 363.387 597.129Z" fill="#36B37E"/>
<path d="M342.843 634.626C342.843 634.626 340.281 635.103 339.419 635.634C338.557 636.165 338.293 636.285 338.293 636.285L340.474 637.462L341.964 637.036L342.843 634.626Z" fill="white" stroke="#36B37E" stroke-width="0.289082" stroke-miterlimit="10"/>
<path d="M344.131 636.452L343.78 638.157L348.776 644.151C348.776 644.151 349.393 644.296 351.437 643.383L352.284 642.827L345.293 635.748C345.307 635.773 344.299 635.587 344.131 636.452Z" fill="white" stroke="#36B37E" stroke-width="0.289082" stroke-miterlimit="10"/>
<path d="M344.131 636.452C344.131 636.452 348.16 638.632 348.077 638.546C347.994 638.46 345.799 635.121 345.799 635.121C345.799 635.121 344.086 635.276 344.131 636.452Z" fill="white" stroke="#36B37E" stroke-width="0.289082" stroke-miterlimit="10"/>
</g>
<defs>
<clipPath id="clip0_48_1090">
<rect width="128.874" height="147.139" fill="white" transform="translate(340.936 238.255) rotate(-15.2643)"/>
</clipPath>
<clipPath id="clip1_48_1090">
<rect width="58.2472" height="66.5024" fill="white" transform="translate(50.1346 520.003) rotate(152.88)"/>
</clipPath>
<clipPath id="clip2_48_1090">
<rect width="22.4882" height="25.6754" fill="white" transform="translate(41.6981 134.557) rotate(82.5164)"/>
</clipPath>
<clipPath id="clip3_48_1090">
<rect width="93.8566" height="62.9589" fill="white" transform="translate(375.31 108.234) rotate(-145.241)"/>
</clipPath>
<clipPath id="clip4_48_1090">
<rect width="20.4102" height="16.2672" fill="white" transform="translate(151.014 475.325) rotate(61.0741)"/>
</clipPath>
<clipPath id="clip5_48_1090">
<rect width="48.4212" height="38.5925" fill="white" transform="translate(322.564 615.689) rotate(-30)"/>
</clipPath>
</defs>
</svg>
