<svg width="1413" height="1037" viewBox="0 0 1413 1037" fill="none" xmlns="http://www.w3.org/2000/svg">
<path d="M128.813 718.732L400.472 541.011" stroke="#A5ADBA" stroke-miterlimit="10" stroke-linecap="round" stroke-dasharray="1 1"/>
<path d="M47.855 479.828L356.78 418.062" stroke="#A5ADBA" stroke-miterlimit="10" stroke-linecap="round" stroke-dasharray="1 1"/>
<path d="M44 223.734L352.925 285.5" stroke="#A5ADBA" stroke-miterlimit="10" stroke-linecap="round" stroke-dasharray="1 1"/>
<path d="M117.503 -18.375L389.163 159.347" stroke="#A5ADBA" stroke-miterlimit="10" stroke-linecap="round" stroke-dasharray="1 1"/>
<path d="M259.63 -217.365L461.383 55.044" stroke="#A5ADBA" stroke-miterlimit="10" stroke-linecap="round" stroke-dasharray="1 1"/>
<path d="M1095.68 -233.681L894.188 38.4373" stroke="#A5ADBA" stroke-miterlimit="10" stroke-linecap="round" stroke-dasharray="1 1"/>
<path d="M1243.72 -40.5176L972.318 137.204" stroke="#A5ADBA" stroke-miterlimit="10" stroke-linecap="round" stroke-dasharray="1 1"/>
<path d="M1324.68 198.679L1016.01 260.153" stroke="#A5ADBA" stroke-miterlimit="10" stroke-linecap="round" stroke-dasharray="1 1"/>
<path d="M1328.79 454.48L1019.87 392.715" stroke="#A5ADBA" stroke-miterlimit="10" stroke-linecap="round" stroke-dasharray="1 1"/>
<path d="M1255.03 696.59L983.627 518.868" stroke="#A5ADBA" stroke-miterlimit="10" stroke-linecap="round" stroke-dasharray="1 1"/>
<path d="M1112.9 895.579L911.409 623.17" stroke="#A5ADBA" stroke-miterlimit="10" stroke-linecap="round" stroke-dasharray="1 1"/>
<path d="M919.374 1027.56L812.201 693.385" stroke="#A5ADBA" stroke-miterlimit="10" stroke-linecap="round" stroke-dasharray="1 1"/>
<path d="M686.524 949.771L686.524 720.771" stroke="#A5ADBA" stroke-miterlimit="10" stroke-linecap="round" stroke-dasharray="1 1"/>
<path d="M474.491 1036.3L581.921 702.125" stroke="#A5ADBA" stroke-miterlimit="10" stroke-linecap="round" stroke-dasharray="1 1"/>
<path d="M277.107 911.895L478.602 639.777" stroke="#A5ADBA" stroke-miterlimit="10" stroke-linecap="round" stroke-dasharray="1 1"/>
<path d="M128.813 718.732L400.472 541.011" stroke="#A5ADBA" stroke-miterlimit="10" stroke-linecap="round" stroke-dasharray="1 1"/>
<path d="M47.855 479.828L356.78 418.062" stroke="#A5ADBA" stroke-miterlimit="10" stroke-linecap="round" stroke-dasharray="1 1"/>
<path d="M44 223.734L352.925 285.5" stroke="#A5ADBA" stroke-miterlimit="10" stroke-linecap="round" stroke-dasharray="1 1"/>
<path d="M117.503 -18.375L389.163 159.347" stroke="#A5ADBA" stroke-miterlimit="10" stroke-linecap="round" stroke-dasharray="1 1"/>
<path d="M259.63 -217.365L461.383 55.044" stroke="#A5ADBA" stroke-miterlimit="10" stroke-linecap="round" stroke-dasharray="1 1"/>
<g clip-path="url(#clip0_34_2069)">
<path d="M1114.27 300.424L1232.14 178.735L1403.88 221.388L1285.33 343.039L1114.27 300.424Z" fill="#C5E9DA" stroke="#36B37E" stroke-width="2.29137" stroke-miterlimit="10" stroke-linejoin="round"/>
<path d="M1285.33 343.039L1403.88 221.388L1440.51 388.633L1330.23 507.573L1285.33 343.039Z" fill="white" stroke="#36B37E" stroke-width="2.29137" stroke-miterlimit="10" stroke-linejoin="round"/>
<path d="M1285.33 343.038L1213.12 406.489L1330.23 507.572L1285.33 343.038Z" fill="white" stroke="#36B37E" stroke-width="2.29137" stroke-miterlimit="10" stroke-linejoin="round"/>
<path d="M1213.12 406.49L1114.27 300.424L1285.33 343.039L1213.12 406.49Z" fill="white" stroke="#36B37E" stroke-width="2.29137" stroke-miterlimit="10" stroke-linejoin="round"/>
<path d="M1330.23 507.573L1158.14 461.18L1213.12 406.49L1330.23 507.573Z" fill="#C5E9DA" stroke="#36B37E" stroke-width="2.29137" stroke-miterlimit="10" stroke-linejoin="round"/>
<path d="M1114.27 300.424L1158.14 461.18L1213.12 406.49L1114.27 300.424Z" fill="white" stroke="#36B37E" stroke-width="2.29137" stroke-miterlimit="10" stroke-linejoin="round"/>
<path d="M1249.12 374.792L1270.98 355.747L1249.12 374.792Z" fill="#644DF2"/>
<path d="M1266.23 338.329L1270.98 355.748L1285.33 343.039L1266.23 338.329Z" fill="#36B37E"/>
<path d="M1266.23 338.329L1382.61 216.145L1353.11 208.861L1237.21 331.141L1266.23 338.329Z" fill="#36B37E"/>
<path d="M1215.4 325.592L1331.78 203.408L1302.28 196.124L1186.38 318.404L1215.4 325.592Z" fill="#36B37E"/>
<path d="M1215.4 325.592L1233.04 390.23L1249.12 374.792L1237.21 331.14L1215.4 325.592Z" fill="#36B37E"/>
<path d="M1186.38 318.404L1209.28 402.35L1158.89 348.23L1148.12 308.775L1186.38 318.404Z" fill="#36B37E"/>
<path d="M1148.12 308.775L1165.96 291.506L1131.31 282.697L1114.27 300.424L1148.12 308.775Z" fill="#172B4D"/>
<path d="M1202.69 301.326L1219.3 283.713L1181.52 274.179L1164.43 291.697L1202.69 301.326Z" fill="#172B4D"/>
<path d="M1181.52 274.179L1199.36 256.909L1164.71 248.1L1147.62 265.618L1181.52 274.179Z" fill="#172B4D"/>
<path d="M1208.52 411.127L1213.12 406.49L1175.71 466.081L1158.14 461.18L1208.52 411.127Z" fill="#172B4D"/>
<path d="M1415.4 273.492L1393.63 297.021L1402.45 334.301L1423.65 311.154L1415.4 273.492Z" fill="#36B37E"/>
<path d="M1400.6 326.688L1406.69 354.791L1385.5 377.938L1378.93 349.739L1307.78 425.305C1307.78 425.305 1327.25 496.659 1330.23 507.572C1333.2 518.485 1440.56 388.842 1440.56 388.842L1421.97 304.171L1400.6 326.688Z" fill="#172B4D"/>
</g>
<g opacity="0.88">
<g clip-path="url(#clip1_34_2069)">
<path d="M395.707 780.102L354.867 844.873L274.941 841.953L316.087 777.135L395.707 780.102Z" fill="#C5E9DA" stroke="#36B37E" stroke-width="1.11251" stroke-miterlimit="10" stroke-linejoin="round"/>
<path d="M316.088 777.134L274.941 841.953L243.213 771.376L280.949 708.525L316.088 777.134Z" fill="white" stroke="#36B37E" stroke-width="1.11251" stroke-miterlimit="10" stroke-linejoin="round"/>
<path d="M316.088 777.134L342.135 742.364L280.949 708.525L316.088 777.134Z" fill="white" stroke="#36B37E" stroke-width="1.11251" stroke-miterlimit="10" stroke-linejoin="round"/>
<path d="M342.135 742.364L395.707 780.102L316.088 777.134L342.135 742.364Z" fill="white" stroke="#36B37E" stroke-width="1.11251" stroke-miterlimit="10" stroke-linejoin="round"/>
<path d="M280.949 708.525L361.375 713.068L342.135 742.364L280.949 708.525Z" fill="#C5E9DA" stroke="#36B37E" stroke-width="1.11251" stroke-miterlimit="10" stroke-linejoin="round"/>
<path d="M395.707 780.102L361.375 713.068L342.135 742.364L395.707 780.102Z" fill="white" stroke="#36B37E" stroke-width="1.11251" stroke-miterlimit="10" stroke-linejoin="round"/>
<path d="M329.155 759.727L321.253 770.181L329.155 759.727Z" fill="#644DF2"/>
<path d="M324.973 777.444L321.253 770.181L316.088 777.135L324.973 777.444Z" fill="#36B37E"/>
<path d="M324.973 777.444L284.838 842.296L298.562 842.779L338.478 777.929L324.973 777.444Z" fill="#36B37E"/>
<path d="M348.639 778.359L308.504 843.211L322.228 843.694L362.144 778.844L348.639 778.359Z" fill="#36B37E"/>
<path d="M348.64 778.358L334.835 751.405L329.155 759.727L338.478 777.929L348.64 778.358Z" fill="#36B37E"/>
<path d="M362.144 778.844L344.216 743.839L371.533 763.099L379.959 779.551L362.144 778.844Z" fill="#36B37E"/>
<path d="M379.96 779.551L373.673 788.846L389.818 789.525L395.707 780.102L379.96 779.551Z" fill="#172B4D"/>
<path d="M356.515 787.912L350.801 797.246L368.397 797.955L374.331 788.619L356.515 787.912Z" fill="#172B4D"/>
<path d="M368.397 797.955L362.111 807.25L378.256 807.93L384.189 798.594L368.397 797.955Z" fill="#172B4D"/>
<path d="M343.738 739.886L342.135 742.364L353.147 712.532L361.375 713.068L343.738 739.886Z" fill="#172B4D"/>
<path d="M265.011 819.975L272.454 807.547L265.09 791.876L257.865 804.082L265.011 819.975Z" fill="#36B37E"/>
<path d="M266.616 795.07L261.312 783.205L268.538 770.999L274.061 782.862L298.518 742.83C298.518 742.83 283.28 713.076 280.949 708.525C278.618 703.975 243.168 771.288 243.168 771.288L259.256 807.014L266.616 795.07Z" fill="#172B4D"/>
</g>
</g>
<g opacity="0.32">
<g clip-path="url(#clip2_34_2069)">
<path d="M515.39 94.1903L533.644 117.444L522.213 146.129L503.981 122.757L515.39 94.1903Z" fill="#C5E9DA" stroke="#36B37E" stroke-width="1.11251" stroke-miterlimit="10" stroke-linejoin="round"/>
<path d="M503.981 122.757L522.213 146.128L492.432 148.509L474.474 126.633L503.981 122.757Z" fill="white" stroke="#36B37E" stroke-width="1.11251" stroke-miterlimit="10" stroke-linejoin="round"/>
<path d="M503.981 122.756L494.717 108.774L474.474 126.632L503.981 122.756Z" fill="white" stroke="#36B37E" stroke-width="1.11251" stroke-miterlimit="10" stroke-linejoin="round"/>
<path d="M494.717 108.774L515.39 94.1895L503.981 122.757L494.717 108.774Z" fill="white" stroke="#36B37E" stroke-width="1.11251" stroke-miterlimit="10" stroke-linejoin="round"/>
<path d="M474.474 126.633L486.56 97.9766L494.717 108.774L474.474 126.633Z" fill="#C5E9DA" stroke="#36B37E" stroke-width="1.11251" stroke-miterlimit="10" stroke-linejoin="round"/>
<path d="M515.39 94.1895L486.56 97.9766L494.717 108.774L515.39 94.1895Z" fill="white" stroke="#36B37E" stroke-width="1.11251" stroke-miterlimit="10" stroke-linejoin="round"/>
<path d="M499.346 115.747L502.123 119.976L499.346 115.747Z" fill="#644DF2"/>
<path d="M505.247 119.565L502.123 119.976L503.981 122.756L505.247 119.565Z" fill="#36B37E"/>
<path d="M505.246 119.566L523.622 142.574L525.578 137.646L507.175 114.718L505.246 119.566Z" fill="#36B37E"/>
<path d="M508.649 111.078L527.024 134.087L528.98 129.159L510.578 106.231L508.649 111.078Z" fill="#36B37E"/>
<path d="M508.649 111.078L497.057 112.601L499.346 115.746L507.175 114.718L508.649 111.078Z" fill="#36B37E"/>
<path d="M510.577 106.23L495.523 108.208L506.07 100.773L513.146 99.8438L510.577 106.23Z" fill="#36B37E"/>
<path d="M513.146 99.8439L515.711 103.336L518.052 97.5531L515.39 94.1891L513.146 99.8439Z" fill="#172B4D"/>
<path d="M513.145 109.455L515.798 112.743L518.338 106.437L515.714 103.068L513.145 109.455Z" fill="#172B4D"/>
<path d="M518.339 106.437L520.903 109.928L523.245 104.146L520.62 100.777L518.339 106.437Z" fill="#172B4D"/>
<path d="M494.024 107.869L494.717 108.774L485.298 100.899L486.56 97.9766L494.024 107.869Z" fill="#172B4D"/>
<path d="M512.932 146.887L509.379 142.568L502.725 143.213L506.226 147.424L512.932 146.887Z" fill="#36B37E"/>
<path d="M504.085 143.073L499.082 143.462L495.581 139.251L500.611 138.781L489.228 124.694C489.228 124.694 476.431 126.375 474.474 126.632C472.517 126.89 492.395 148.514 492.395 148.514L507.473 147.299L504.085 143.073Z" fill="#172B4D"/>
</g>
</g>
<g clip-path="url(#clip3_34_2069)">
<path d="M30.2924 349.725L178.988 257.453C178.988 257.453 59.7305 445.868 57.7308 445.056C57.7308 445.056 39.1872 375.239 30.2924 349.725Z" fill="white" stroke="#36B37E" stroke-width="1.43899" stroke-miterlimit="10" stroke-linejoin="round"/>
<path d="M178.988 257.453L183.471 263.623C183.471 263.623 188.303 458.183 187.999 460.079C187.695 461.975 190.678 463.808 185.995 465.012C181.312 466.216 98.3845 453.184 77.991 449.093C57.7309 445.056 57.7309 445.056 57.7309 445.056L178.988 257.453Z" fill="#36B37E"/>
<path d="M86.7361 338.485L123.14 436.215L185.45 402.506L182.954 300.068L86.7361 338.485Z" fill="#C5E9DA"/>
<mask id="mask0_34_2069" style="mask-type:alpha" maskUnits="userSpaceOnUse" x="87" y="300" width="99" height="137">
<path d="M87.2161 339.19L123.62 436.92L185.93 403.211L183.434 300.773L87.2161 339.19Z" fill="#C5E9DA"/>
</mask>
<g mask="url(#mask0_34_2069)">
<path d="M176.527 398.561L159.871 395.211L159.487 416.8L141.573 413.871L140.431 437.327L159.017 439.752L176.694 442.118L193.463 444.426L192.779 422.404L176.494 419.671L176.527 398.561Z" fill="#36B37E"/>
<path d="M142.439 391.858L159.871 395.212L160.221 374.852L143.46 370.994L142.439 391.858Z" fill="#36B37E"/>
<path d="M124.208 388.179L122.671 410.697L141.573 413.872L142.44 391.858L124.208 388.179Z" fill="#36B37E"/>
<path d="M124.208 388.179L125.658 367.023L107.002 362.861L104.935 384.387L124.208 388.179Z" fill="#36B37E"/>
<path d="M104.935 384.388L84.8087 380.405L81.7965 403.878L78.5885 428.979L100.378 431.928L120.992 434.711L122.671 410.698L102.727 407.41L104.935 384.388Z" fill="#36B37E"/>
<path d="M222.013 407.411L220.672 388.538L206.607 385.309L191.821 381.943L191.334 363.262L176.39 359.52L160.725 355.642L160.221 374.852L176.448 378.493L176.527 398.562L192.384 401.586L192.779 422.405L208.344 425L207.465 404.607L222.013 407.411Z" fill="#36B37E"/>
<path d="M204.982 349.546L190.867 345.676L191.334 363.261L205.824 366.974L204.982 349.546Z" fill="#36B37E"/>
<path d="M144.26 351.437L160.725 355.641L161.037 337.285L145.135 332.844L128.378 328.211L127.074 347.096L125.658 367.023L143.46 370.993L144.26 351.437Z" fill="#36B37E"/>
<path d="M109.035 342.563L90.1955 337.705L87.5458 358.374L107.002 362.861L109.035 342.563Z" fill="#36B37E"/>
<path d="M66.915 353.72L63.3737 376.201L84.8087 380.405L87.5459 358.374L66.915 353.72Z" fill="#36B37E"/>
</g>
<path d="M86.7359 338.485L140.509 316.996L101.751 378.755L86.7359 338.485Z" fill="#172B4D"/>
<path d="M57.3726 332.769L45.728 401.194" stroke="#36B37E" stroke-width="1.43899" stroke-miterlimit="10" stroke-linejoin="round"/>
<path d="M54.9437 347.159L50.2943 337.194L57.3726 332.769L54.9437 347.159Z" fill="#172B4D"/>
<path d="M150.728 275.018L165.11 278.997" stroke="#36B37E" stroke-width="1.43899" stroke-miterlimit="10" stroke-linejoin="round"/>
<path d="M97.022 368.603L132.48 458.338" stroke="white" stroke-width="1.43899" stroke-miterlimit="10" stroke-linejoin="round"/>
</g>
<g clip-path="url(#clip4_34_2069)">
<path d="M1058.3 106.296L949.432 91.8536L903.976 47.7559L910.009 -63.6214L924.795 -84.9283L957.777 -80.3161L1064.14 34.2942L1058.3 106.296Z" fill="#C5E9DA" stroke="#36B37E" stroke-width="1.51665" stroke-miterlimit="10" stroke-linejoin="round"/>
<path d="M986.28 96.7483L983.764 64.7269C983.764 64.7269 972.766 94.9395 968.192 94.3493C963.492 93.6726 986.28 96.7483 986.28 96.7483Z" fill="#36B37E"/>
<path d="M1012.3 100.221L1037.25 5.4781" stroke="#36B37E" stroke-width="1.51665" stroke-miterlimit="10"/>
<path d="M1030.96 29.1729L1029.09 -3.50967" stroke="#36B37E" stroke-width="1.51665" stroke-miterlimit="10"/>
<path d="M909.495 -40.1956L953.99 -11.2963L965.004 1.60045L953.453 10.243L908.71 -26.2529L909.495 -40.1956Z" fill="white" stroke="#36B37E" stroke-width="1.51665"/>
<path d="M983.322 80.1289L983.655 30.701" stroke="#36B37E" stroke-width="1.51665" stroke-miterlimit="10"/>
<path d="M921.147 -23.9389L908.272 -30.6582L904.031 47.8105L949.487 91.9082L953.433 11.2043L947.717 1.88396L921.147 -23.9389Z" fill="#172B4D"/>
</g>
<g opacity="0.48" clip-path="url(#clip5_34_2069)">
<path d="M544.805 625.853L628.36 676.82C628.36 676.82 640.732 686.566 629.099 707.557C617.466 728.548 603.373 723.457 603.373 723.457L516.596 673.513C516.596 673.513 506.313 664.044 516.625 644.624C528.555 622.038 544.805 625.853 544.805 625.853Z" fill="#C5E9DA" stroke="#36B37E" stroke-width="0.736762" stroke-miterlimit="10"/>
<path d="M544.805 625.852C544.805 625.852 556.647 633.114 544.013 657.015C532.14 679.402 516.596 673.513 516.596 673.513C516.596 673.513 506.608 663.207 516.625 644.624C526.643 626.041 538.666 625.71 544.805 625.852Z" fill="#36B37E"/>
<path d="M621.728 672.74C621.728 672.74 614.001 684.502 593.66 692.629C572.086 701.268 559.799 698.378 559.799 698.378L577.23 708.442C577.23 708.442 586.378 710.374 608.929 699.848C627.339 691.273 632.597 682.812 632.597 682.812L628.259 676.791L621.728 672.74Z" fill="#172B4D"/>
<path d="M592.106 654.934C592.106 654.934 584.626 665.466 562.497 672.643C540.369 679.821 525.179 678.535 525.179 678.535L542.61 688.6C542.61 688.6 556.733 690.392 576.674 682.15C595.154 674.463 605.705 663.244 605.705 663.244L595.015 656.694L592.106 654.934Z" fill="#36B37E"/>
<path d="M544.013 657.015C544.013 657.015 567.201 658.764 580.83 647.781L565.88 638.702C565.88 638.702 559.061 641.292 549.733 639.796C549.733 639.796 547.276 650.582 544.013 657.015Z" fill="#172B4D"/>
<path d="M535.159 647.851L532.217 651.665L533.201 669.135C533.201 669.135 539.967 664.471 544.012 657.016L540.425 648.392L535.159 647.851Z" fill="white" stroke="#36B37E" stroke-width="0.736762" stroke-miterlimit="10"/>
<path d="M548.422 631.178C548.422 631.178 547.422 626.932 544.77 625.789L530.734 646.088C530.734 646.088 535.618 647.766 536.833 648.441C538.084 649.181 540.378 650.439 540.378 650.439L548.985 644.84C549.02 644.905 551.97 638.056 548.422 631.178Z" fill="white" stroke="#36B37E" stroke-width="0.736762" stroke-miterlimit="10"/>
<path d="M631.436 702.646C631.436 702.646 618.907 711.506 603.623 714.312C589.419 716.943 588.107 714.721 588.107 714.721L603.373 723.457C603.373 723.457 609.895 725.662 618.064 720.642C626.233 715.623 631.436 702.646 631.436 702.646Z" fill="#36B37E"/>
<path d="M536.868 648.505C536.868 648.505 535.774 641.955 534.462 639.734C533.15 637.512 532.858 636.832 532.858 636.832L529.754 642.335L530.769 646.152L536.868 648.505Z" fill="white" stroke="#36B37E" stroke-width="0.736762" stroke-miterlimit="10"/>
<path d="M532.153 651.701L527.825 650.725L512.312 663.17C512.312 663.17 511.914 664.737 514.142 669.987L515.519 672.173L533.892 654.696C533.827 654.732 534.348 652.171 532.153 651.701Z" fill="white" stroke="#36B37E" stroke-width="0.736762" stroke-miterlimit="10"/>
<path d="M532.152 651.701C532.152 651.701 526.405 661.864 526.627 661.657C526.849 661.45 535.463 656.016 535.463 656.016C535.463 656.016 535.151 651.643 532.152 651.701Z" fill="white" stroke="#36B37E" stroke-width="0.736762" stroke-miterlimit="10"/>
</g>
<g clip-path="url(#clip6_34_2069)">
<path d="M919.353 815.519L1012.29 656.525C1012.29 656.525 1030.19 632.904 1070.09 654.049C1110 675.195 1100.92 701.889 1100.92 701.889L1010.01 866.909C1010.01 866.909 992.562 886.59 955.663 867.873C912.749 846.226 919.353 815.519 919.353 815.519Z" fill="#C5E9DA" stroke="#36B37E" stroke-width="1.38636" stroke-miterlimit="10"/>
<path d="M919.354 815.518C919.354 815.518 932.598 792.985 978.011 815.911C1020.55 837.457 1010.02 866.909 1010.02 866.909C1010.02 866.909 990.979 886.064 955.664 867.873C920.349 849.682 919.302 827.074 919.354 815.518Z" fill="#36B37E"/>
<path d="M1004.85 669.146C1004.85 669.146 1027.25 683.267 1043.26 721.25C1060.27 761.533 1055.27 784.753 1055.27 784.753L1073.59 751.603C1073.59 751.603 1076.9 734.324 1056.3 692.269C1039.52 657.935 1023.42 648.342 1023.42 648.342L1012.24 656.715L1004.85 669.146Z" fill="#172B4D"/>
<path d="M972.398 725.503C972.398 725.503 992.475 739.205 1006.76 780.583C1021.04 821.961 1019.16 850.584 1019.16 850.584L1037.48 817.434C1037.48 817.434 1040.35 790.802 1024.14 753.577C1009.03 719.08 987.552 699.624 987.552 699.624L975.606 719.969L972.398 725.503Z" fill="#36B37E"/>
<path d="M978.011 815.911C978.011 815.911 980.482 772.223 959.339 746.97L942.785 775.417C942.785 775.417 947.898 788.154 945.414 805.756C945.414 805.756 965.793 809.999 978.011 815.911Z" fill="#172B4D"/>
<path d="M961.08 832.89L968.36 838.292L1001.19 835.824C1001.19 835.824 992.178 823.26 978.011 815.911L961.912 822.965L961.08 832.89Z" fill="white" stroke="#36B37E" stroke-width="1.38636" stroke-miterlimit="10"/>
<path d="M929.245 808.527C929.245 808.527 921.292 810.557 919.234 815.588L957.919 841.278C957.919 841.278 960.904 832.031 962.132 829.721C963.479 827.342 965.764 822.981 965.764 822.981L954.929 806.986C955.049 806.916 942.059 801.609 929.245 808.527Z" fill="white" stroke="#36B37E" stroke-width="1.38636" stroke-miterlimit="10"/>
<path d="M1060.77 649.826C1060.77 649.826 1077.88 673.084 1083.7 701.741C1089.15 728.37 1085.02 730.917 1085.02 730.917L1100.92 701.888C1100.92 701.888 1104.83 689.541 1095.1 674.349C1085.37 659.157 1060.77 649.826 1060.77 649.826Z" fill="#36B37E"/>
<path d="M962.252 829.652C962.252 829.652 949.967 831.942 945.834 834.488C941.701 837.034 940.431 837.607 940.431 837.607L950.894 843.253L958.039 841.209L962.252 829.652Z" fill="white" stroke="#36B37E" stroke-width="1.38636" stroke-miterlimit="10"/>
<path d="M968.429 838.411L966.746 846.587L990.708 875.335C990.708 875.335 993.668 876.027 1003.47 871.65L1007.53 868.983L974.003 835.033C974.072 835.153 969.236 834.263 968.429 838.411Z" fill="white" stroke="#36B37E" stroke-width="1.38636" stroke-miterlimit="10"/>
<path d="M968.43 838.411C968.43 838.411 987.753 848.866 987.355 848.456C986.958 848.045 976.432 832.031 976.432 832.031C976.432 832.031 968.215 832.772 968.43 838.411Z" fill="white" stroke="#36B37E" stroke-width="1.38636" stroke-miterlimit="10"/>
</g>
<defs>
<clipPath id="clip0_34_2069">
<rect width="302.379" height="345.234" fill="white" transform="translate(1090.2 216.345) rotate(-15.2643)"/>
</clipPath>
<clipPath id="clip1_34_2069">
<rect width="136.667" height="156.036" fill="white" transform="translate(414.162 815.057) rotate(152.88)"/>
</clipPath>
<clipPath id="clip2_34_2069">
<rect width="52.7646" height="60.2428" fill="white" transform="translate(530.495 92.0137) rotate(82.5164)"/>
</clipPath>
<clipPath id="clip3_34_2069">
<rect width="217" height="220.885" fill="white" transform="translate(83.1362 217.736) rotate(22.1095)"/>
</clipPath>
<clipPath id="clip4_34_2069">
<rect width="220.218" height="147.722" fill="white" transform="translate(1029.92 148.649) rotate(-145.241)"/>
</clipPath>
<clipPath id="clip5_34_2069">
<rect width="123.408" height="98.3577" fill="white" transform="translate(586.087 597.736) rotate(61.0741)"/>
</clipPath>
<clipPath id="clip6_34_2069">
<rect width="232.215" height="185.079" fill="white" transform="translate(865 738.844) rotate(-30)"/>
</clipPath>
</defs>
</svg>
